<?xml version="1.0" encoding="UTF-8"?>
<svg width="166px" height="96px" viewBox="0 0 166 96" version="1.1" xmlns="http://www.w3.org/2000/svg" xmlns:xlink="http://www.w3.org/1999/xlink">
    <!-- Generator: sketchtool 52.6 (67491) - http://www.bohemiancoding.com/sketch -->
    <title>CCA3C2DA-7421-448D-B5B5-D924DA0D5314</title>
    <desc>Created with sketchtool.</desc>
    <defs>
        <polygon id="path-1" points="0.143177941 2.2195122 19.8540897 2.2195122 19.8540897 34.8458537 0.143177941 34.8458537"></polygon>
        <polygon id="path-3" points="0 97.7812195 165.703294 97.7812195 165.703294 2.4397561 0 2.4397561"></polygon>
    </defs>
    <g id="Promo-Desktop" stroke="none" stroke-width="1" fill="none" fill-rule="evenodd">
        <g id="Homepage-slide03" transform="translate(-74.000000, -10.000000)">
            <g id="navigation/desktop/topnav">
                <g id="pr-punch-logo-orange" transform="translate(74.000000, 8.000000)">
                    <g id="pr-punch">
                        <path d="M41.6913044,14.9831707 C64.725025,14.9831707 83.387275,33.514878 83.387275,56.3831707 C83.387275,79.2417073 64.725025,97.7807317 41.6913044,97.7807317 C18.6772309,97.7807317 0.000245588235,79.2417073 0.000245588235,56.3831707 C0.000245588235,33.514878 18.6772309,14.9831707 41.6913044,14.9831707" id="Fill-1" fill="#FE5001"></path>
                        <path d="M24.2697662,34.6597561 L28.2237368,34.6597561 C28.4521338,34.6597561 28.6756191,34.6085366 28.8941926,34.5036585 C29.1152221,34.3987805 29.3116926,34.2597561 29.4885162,34.0841463 C29.6628838,33.9085366 29.8028691,33.7134146 29.9084721,33.4963415 C30.014075,33.2792683 30.0656485,33.054878 30.0656485,32.8280488 C30.0656485,32.6012195 30.014075,32.3792683 29.9084721,32.1621951 C29.8028691,31.9426829 29.6628838,31.747561 29.4885162,31.5719512 C29.3116926,31.3987805 29.1152221,31.2573171 28.8941926,31.154878 C28.6756191,31.05 28.4521338,30.9963415 28.2237368,30.9963415 L24.2697662,30.9963415 L24.2697662,34.6597561 Z M31.5023397,26.2987805 C32.477325,26.6573171 33.3074132,27.147561 33.9950603,27.7768293 C34.6777956,28.4060976 35.2058103,29.152439 35.5741926,30.0158537 C35.942575,30.8792683 36.1267662,31.8158537 36.1267662,32.8280488 C36.1267662,33.8402439 35.942575,34.7768293 35.5741926,35.6426829 C35.2058103,36.5036585 34.6777956,37.252439 33.9950603,37.8792683 C33.3074132,38.5060976 32.477325,38.9987805 31.5023397,39.3573171 C30.5273544,39.7158537 29.4344868,39.8939024 28.2237368,39.8939024 L24.2697662,39.8939024 L24.2697662,44.0817073 L18.2111044,44.0817073 L18.2111044,25.7621951 L28.2237368,25.7621951 C29.4344868,25.7621951 30.5273544,25.9426829 31.5023397,26.2987805 Z" id="Fill-3" fill="#FFFFFF"></path>
                        <path d="M44.0415838,34.1368293 L47.7303191,34.1368293 C48.1330838,34.1368293 48.4990103,33.9758537 48.8231868,33.6539024 C49.1498191,33.3295122 49.3094515,32.9660976 49.3094515,32.5660976 C49.3094515,32.1660976 49.1498191,31.8026829 48.8231868,31.4807317 C48.4990103,31.1587805 48.1330838,30.9953659 47.7303191,30.9953659 L44.0415838,30.9953659 L44.0415838,34.1368293 Z M49.1792897,44.0807317 L46.6767456,39.11 L44.0415838,39.11 L44.0415838,44.0807317 L37.9804662,44.0807317 L37.9804662,25.7612195 L47.7303191,25.7612195 C48.9091426,25.7612195 49.9700838,25.9319512 50.9205103,26.2734146 C51.8684809,26.612439 52.6715544,27.0831707 53.3297309,27.6856098 C53.9903632,28.2880488 54.4938191,29.007561 54.8450103,29.8441463 C55.1962015,30.6831707 55.373025,31.5904878 55.373025,32.5660976 C55.373025,33.5612195 55.2084809,34.3904878 54.8843044,35.0514634 C54.5601279,35.714878 54.1942015,36.2490244 53.7914368,36.6490244 C53.3370985,37.1197561 52.8090838,37.5026829 52.2123044,37.8002439 L55.6358044,44.0807317 L49.1792897,44.0807317 Z" id="Fill-5" fill="#FFFFFF"></path>
                        <path d="M24.2697662,55.997561 L28.2237368,55.997561 C28.4521338,55.997561 28.6756191,55.9463415 28.8941926,55.8414634 C29.1152221,55.7365854 29.3116926,55.595122 29.4885162,55.4219512 C29.6628838,55.2487805 29.8028691,55.0512195 29.9084721,54.8341463 C30.014075,54.6146341 30.0656485,54.3926829 30.0656485,54.1658537 C30.0656485,53.9390244 30.014075,53.7170732 29.9084721,53.5 C29.8028691,53.2804878 29.6628838,53.0853659 29.4885162,52.9097561 C29.3116926,52.7365854 29.1152221,52.595122 28.8941926,52.4926829 C28.6756191,52.3853659 28.4521338,52.3341463 28.2237368,52.3341463 L24.2697662,52.3341463 L24.2697662,55.997561 Z M31.5023397,47.6365854 C32.477325,47.995122 33.3074132,48.4878049 33.9950603,49.1146341 C34.6777956,49.7439024 35.2058103,50.4902439 35.5741926,51.3512195 C35.942575,52.2170732 36.1267662,53.1560976 36.1267662,54.1658537 C36.1267662,55.1780488 35.942575,56.1146341 35.5741926,56.9780488 C35.2058103,57.8414634 34.6777956,58.5878049 33.9950603,59.2146341 C33.3074132,59.8439024 32.477325,60.3365854 31.5023397,60.695122 C30.5273544,61.0512195 29.4344868,61.2317073 28.2237368,61.2317073 L24.2697662,61.2317073 L24.2697662,65.4170732 L18.2111044,65.4170732 L18.2111044,47.1 L28.2237368,47.1 C29.4344868,47.1 30.5273544,47.2780488 31.5023397,47.6365854 Z" id="Fill-7" fill="#FFFFFF"></path>
                        <path d="M55.3725338,47.0990244 L55.3725338,58.0917073 C55.3725338,59.2770732 55.1662397,60.362439 54.7511956,61.3478049 C54.3410632,62.3331707 53.7565632,63.1917073 53.0026074,63.9136585 C52.2461956,64.6380488 51.3326074,65.2014634 50.2593868,65.6014634 C49.1886221,66.0039024 47.9950632,66.2014634 46.6762544,66.2014634 C45.3599015,66.2014634 44.1638868,66.0039024 43.0931221,65.6014634 C42.0223574,65.2014634 41.1087691,64.6380488 40.3548132,63.9136585 C39.5959456,63.1917073 39.0139015,62.3331707 38.5988574,61.3478049 C38.188725,60.362439 37.979975,59.2770732 37.979975,58.0917073 L37.979975,47.0990244 L44.0410926,47.0990244 L44.0410926,58.0917073 C44.0410926,58.8770732 44.284225,59.5087805 44.7655779,59.9892683 C45.2493868,60.4673171 45.8879162,60.7063415 46.6762544,60.7063415 C47.4670485,60.7063415 48.1031221,60.4673171 48.5869309,59.9892683 C49.0707397,59.5087805 49.3114162,58.8770732 49.3114162,58.0917073 L49.3114162,47.0990244 L55.3725338,47.0990244 Z" id="Fill-9" fill="#FFFFFF"></path>
                        <polygon id="Fill-11" fill="#FFFFFF" points="69.3474868 47.0990244 75.4061485 47.0990244 75.4061485 65.4185366 68.8194721 65.4185366 64.3399426 57.3039024 64.0771632 57.3039024 64.0771632 65.4185366 58.0160456 65.4185366 58.0160456 47.0990244 64.6027221 47.0990244 69.1092662 55.2112195 69.3474868 55.2112195"></polygon>
                        <path d="M29.0916456,81.8621951 C29.4968662,81.7402439 29.855425,81.5743902 30.1722338,81.3646341 C30.4890426,81.154878 30.7665574,80.9060976 31.0023221,80.6182927 C31.2405426,80.3304878 31.4542044,80.0207317 31.6482191,79.6890244 L37.7093368,80.4768293 C37.5153221,81.3304878 37.1469397,82.1743902 36.6017338,83.0134146 C36.0565279,83.85 35.3639691,84.6036585 34.5216015,85.2768293 C33.6767779,85.95 32.7017926,86.4939024 31.5966456,86.9109756 C30.4890426,87.3329268 29.2758368,87.5402439 27.9594838,87.5402439 C26.5006897,87.5402439 25.1352191,87.2695122 23.8630721,86.7304878 C22.5884691,86.1865854 21.4710426,85.4597561 20.5157044,84.545122 C19.5579103,83.6304878 18.8039544,82.5670732 18.248925,81.3646341 C17.6963515,80.1621951 17.4212926,78.9060976 17.4212926,77.5963415 C17.4212926,76.2890244 17.6963515,75.0378049 18.248925,73.8402439 C18.8039544,72.645122 19.5579103,71.5914634 20.5157044,70.6743902 C21.4710426,69.7597561 22.5884691,69.0256098 23.8630721,68.4768293 C25.1352191,67.9280488 26.5006897,67.652439 27.9594838,67.652439 C29.2070721,67.652439 30.3392338,67.8353659 31.358425,68.2012195 C32.3776162,68.5695122 33.2740132,69.052439 34.0476162,69.654878 C34.8187632,70.2573171 35.4695721,70.95 35.9951309,71.7353659 C36.5206897,72.5182927 36.9185426,73.3402439 37.1813221,74.1963415 L31.1202044,74.9792683 C30.9286456,74.7158537 30.7248074,74.4743902 30.5160574,74.247561 C30.3048515,74.0207317 30.0666309,73.8280488 29.8038515,73.6719512 C29.5410721,73.5134146 29.2365426,73.3865854 28.895175,73.2914634 C28.5513515,73.1963415 28.1534985,73.147561 27.6967044,73.147561 C27.1686897,73.147561 26.6504985,73.2695122 26.1421309,73.5134146 C25.6313074,73.7597561 25.179425,74.0865854 24.7864838,74.4939024 C24.3886309,74.9060976 24.0718221,75.3768293 23.8336015,75.9085366 C23.5978368,76.4402439 23.4799544,77.0036585 23.4799544,77.5963415 C23.4799544,78.1914634 23.5978368,78.752439 23.8336015,79.2841463 C24.0718221,79.8158537 24.3886309,80.2865854 24.7864838,80.6963415 C25.179425,81.1085366 25.6313074,81.4353659 26.1421309,81.6792683 C26.6504985,81.9231707 27.1686897,82.047561 27.6967044,82.047561 C28.2222632,82.047561 28.686425,81.9841463 29.0916456,81.8621951" id="Fill-13" fill="#FFFFFF"></path>
                        <polygon id="Fill-15" fill="#FFFFFF" points="45.3594103 68.4380488 45.3594103 74.9795122 50.6297338 74.9795122 50.6297338 68.4380488 56.6883956 68.4380488 56.6883956 86.755122 50.6297338 86.755122 50.6297338 80.4770732 45.3594103 80.4770732 45.3594103 86.755122 39.2982926 86.755122 39.2982926 68.4380488"></polygon>
                        <path d="M64.3171029,35.0287805 C66.9817353,35.0287805 69.138,37.1702439 69.138,39.8141463 C69.138,42.4556098 66.9817353,44.5995122 64.3171029,44.5995122 C61.6598382,44.5995122 59.4986618,42.4556098 59.4986618,39.8141463 C59.4986618,37.1702439 61.6598382,35.0287805 64.3171029,35.0287805" id="Fill-17" fill="#FFFFFF"></path>
                        <g id="Group-21" transform="translate(58.941176, 0.220244)">
                            <mask id="mask-2" fill="white">
                                <use xlink:href="#path-1"></use>
                            </mask>
                            <g id="Clip-20"></g>
                            <path d="M4.83145735,33.4117073 C5.34228088,33.3385366 5.86538382,33.3117073 6.39831029,33.3921951 C7.55011912,33.5653659 8.54720735,34.0995122 9.32326618,34.8458537 L19.8540897,19.9141463 L9.91022206,19.5678049 L15.3303544,9.04097561 L3.01164853,2.21902439 L0.143177941,26.58 L7.82763382,25.984878 L4.83145735,33.4117073 Z" id="Fill-19" fill="#FFFFFF" mask="url(#mask-2)"></path>
                        </g>
                        <path d="M92.3917676,51.9246341 C92.2616059,51.7685366 92.0872382,51.6343902 91.8711206,51.5221951 C91.6525471,51.41 91.4069588,51.314878 91.1343559,51.2343902 C90.8592971,51.1539024 90.5817824,51.0734146 90.2969,50.9880488 C90.0120176,50.905122 89.7320471,50.81 89.4594441,50.705122 C89.1843853,50.6002439 88.9387971,50.4709756 88.7226794,50.314878 C88.5041059,50.1563415 88.3297382,49.9660976 88.2020324,49.7392683 C88.0718706,49.512439 88.0055618,49.2343902 88.0055618,48.907561 C88.0055618,48.6490244 88.0645029,48.3978049 88.1848412,48.1490244 C88.3051794,47.9026829 88.4770912,47.6831707 88.7005765,47.4953659 C88.9265176,47.307561 89.1966647,47.1563415 89.5183853,47.0392683 C89.83765,46.9270732 90.1912971,46.8685366 90.5866941,46.8685366 C90.9649,46.8685366 91.3038118,46.9173171 91.6034294,47.014878 C91.9005912,47.112439 92.1609147,47.2465854 92.3868559,47.4173171 C92.6103412,47.5880488 92.8019,47.7880488 92.9541647,48.0173171 C93.1088853,48.2490244 93.2316794,48.4929268 93.3225471,48.7514634 L92.5882382,48.907561 C92.4949147,48.6978049 92.3917676,48.51 92.2763412,48.3441463 C92.1609147,48.1758537 92.0233853,48.0319512 91.8662088,47.914878 C91.7065765,47.7953659 91.5223853,47.705122 91.3136353,47.6417073 C91.1024294,47.5807317 90.8592971,47.5465854 90.5866941,47.5465854 C90.2969,47.5465854 90.0390324,47.5856098 89.8130912,47.6636585 C89.5822382,47.7392683 89.3906794,47.8441463 89.2335029,47.9709756 C89.0738706,48.1002439 88.9535324,48.2465854 88.8700324,48.41 C88.7840765,48.5734146 88.7423265,48.7392683 88.7423265,48.907561 C88.7423265,49.2221951 88.8552971,49.4685366 89.0787824,49.6441463 C89.3047235,49.8221951 89.58715,49.9734146 89.9285176,50.0929268 C90.2674294,50.2173171 90.6382676,50.3295122 91.0336647,50.4343902 C91.4290618,50.5392683 91.7974441,50.6734146 92.1388118,50.8368293 C92.4801794,51.0026829 92.7626059,51.212439 92.9860912,51.4758537 C93.2120324,51.7368293 93.3225471,52.0831707 93.3225471,52.514878 C93.3225471,52.8002439 93.26115,53.0782927 93.1334441,53.3417073 C93.0081941,53.607561 92.8240029,53.8417073 92.5808706,54.0417073 C92.3401941,54.2441463 92.0454882,54.407561 91.7016647,54.5295122 C91.3578412,54.6514634 90.9673559,54.712439 90.5326647,54.712439 C90.1274441,54.712439 89.7615176,54.6563415 89.4373412,54.5441463 C89.1156206,54.4319512 88.8307382,54.2807317 88.58515,54.0904878 C88.3395618,53.8978049 88.1357235,53.6709756 87.9687235,53.41 C87.8041794,53.1490244 87.6764735,52.8685366 87.58315,52.5685366 L88.3223706,52.4636585 C88.4132382,52.6856098 88.5262088,52.8929268 88.6588265,53.0856098 C88.7914441,53.2782927 88.9510765,53.4417073 89.1328118,53.5831707 C89.3145471,53.7221951 89.5208412,53.8319512 89.75415,53.912439 C89.9850029,53.9929268 90.2453265,54.0319512 90.5326647,54.0319512 C90.8617529,54.0319512 91.1564588,53.9904878 91.4118706,53.905122 C91.6697382,53.8221951 91.8834,53.71 92.0553118,53.5660976 C92.2272235,53.4246341 92.3573853,53.2612195 92.4482529,53.0807317 C92.5415765,52.8978049 92.5882382,52.71 92.5882382,52.514878 C92.5882382,52.2782927 92.5219294,52.0807317 92.3917676,51.9246341" id="Fill-22" fill="#FFFFFF"></path>
                        <polygon id="Fill-24" fill="#FFFFFF" points="99.7977265 54.3980488 94.5863441 54.3980488 94.5863441 47.1809756 99.7977265 47.1809756 99.7977265 47.8614634 95.3231088 47.8614634 95.3231088 50.424878 98.8497559 50.424878 98.8497559 51.1029268 95.3231088 51.1029268 95.3231088 53.717561 99.7977265 53.717561"></polygon>
                        <polygon id="Fill-26" fill="#FFFFFF" points="100.165863 47.1821951 106.062437 47.1821951 106.062437 47.8626829 103.48376 47.8626829 103.48376 54.3992683 102.74454 54.3992683 102.74454 47.8626829 100.165863 47.8626829"></polygon>
                        <path d="M114.000585,49.6034146 C113.853232,49.244878 113.644482,48.935122 113.379247,48.6790244 C113.111556,48.4204878 112.784924,48.2204878 112.39935,48.0765854 C112.013776,47.9326829 111.586453,47.8619512 111.114924,47.8619512 L109.641394,47.8619512 L109.641394,53.7180488 L111.114924,53.7180488 C111.586453,53.7180488 112.013776,53.6473171 112.39935,53.5034146 C112.784924,53.3595122 113.111556,53.1595122 113.379247,52.9034146 C113.644482,52.644878 113.853232,52.337561 114.000585,51.9765854 C114.147938,51.6180488 114.221615,51.2229268 114.221615,50.7887805 C114.221615,50.3595122 114.147938,49.9619512 114.000585,49.6034146 M114.683321,52.24 C114.501585,52.6814634 114.243718,53.0595122 113.907262,53.3790244 C113.56835,53.6960976 113.163129,53.944878 112.689144,54.1278049 C112.215159,54.3082927 111.692056,54.3985366 111.114924,54.3985366 L108.904629,54.3985366 L108.904629,47.1814634 L111.114924,47.1814634 C111.692056,47.1814634 112.215159,47.2717073 112.689144,47.4546341 C113.163129,47.635122 113.56835,47.8839024 113.907262,48.2009756 C114.243718,48.5180488 114.501585,48.8985366 114.683321,49.342439 C114.867512,49.7839024 114.958379,50.2668293 114.958379,50.7887805 C114.958379,51.3131707 114.867512,51.7960976 114.683321,52.24" id="Fill-28" fill="#FFFFFF"></path>
                        <path d="M122.5446,49.5295122 C122.372688,49.1368293 122.144291,48.7929268 121.859409,48.5002439 C121.574526,48.207561 121.245438,47.9758537 120.869688,47.805122 C120.493938,47.6343902 120.103453,47.5490244 119.695776,47.5490244 C119.2881,47.5490244 118.897615,47.6343902 118.521865,47.805122 C118.146115,47.9758537 117.817026,48.207561 117.532144,48.5002439 C117.247262,48.7929268 117.018865,49.1368293 116.846953,49.5295122 C116.675041,49.9246341 116.589085,50.3441463 116.589085,50.7904878 C116.589085,51.2368293 116.675041,51.6563415 116.846953,52.0514634 C117.018865,52.4441463 117.247262,52.7880488 117.532144,53.0807317 C117.817026,53.3734146 118.146115,53.605122 118.521865,53.7758537 C118.897615,53.9465854 119.2881,54.0319512 119.695776,54.0319512 C120.103453,54.0319512 120.493938,53.9465854 120.869688,53.7758537 C121.245438,53.605122 121.574526,53.3734146 121.859409,53.0807317 C122.144291,52.7880488 122.372688,52.4441463 122.5446,52.0514634 C122.716512,51.6563415 122.802468,51.2368293 122.802468,50.7904878 C122.802468,50.3441463 122.716512,49.9246341 122.5446,49.5295122 M116.161762,49.2856098 C116.370512,48.81 116.650482,48.3929268 117.006585,48.0343902 C117.360232,47.6758537 117.767909,47.3929268 118.232071,47.1831707 C118.696232,46.9734146 119.182497,46.8685366 119.695776,46.8685366 C120.209056,46.8685366 120.697776,46.9734146 121.159482,47.1831707 C121.621188,47.3929268 122.031321,47.6734146 122.387424,48.0295122 C122.741071,48.3856098 123.021041,48.8002439 123.229791,49.2734146 C123.436085,49.7465854 123.539232,50.2539024 123.539232,50.7904878 C123.539232,51.3270732 123.436085,51.8319512 123.229791,52.307561 C123.021041,52.7807317 122.741071,53.1953659 122.387424,53.5514634 C122.031321,53.907561 121.621188,54.1880488 121.159482,54.3978049 C120.697776,54.607561 120.209056,54.712439 119.695776,54.712439 C119.182497,54.712439 118.696232,54.607561 118.232071,54.3978049 C117.767909,54.1880488 117.360232,53.907561 117.006585,53.5514634 C116.650482,53.1953659 116.370512,52.7807317 116.161762,52.307561 C115.955468,51.8319512 115.852321,51.3270732 115.852321,50.7904878 C115.852321,50.2612195 115.955468,49.7587805 116.161762,49.2856098" id="Fill-30" fill="#FFFFFF"></path>
                        <polygon id="Fill-32" fill="#FFFFFF" points="123.695918 47.1821951 129.592491 47.1821951 129.592491 47.8626829 127.013815 47.8626829 127.013815 54.3992683 126.274594 54.3992683 126.274594 47.8626829 123.695918 47.8626829"></polygon>
                        <path d="M134.556566,51.9246341 C134.426404,51.7685366 134.252037,51.6343902 134.035919,51.5221951 C133.817346,51.41 133.571757,51.314878 133.299154,51.2343902 C133.024096,51.1539024 132.746581,51.0734146 132.461699,50.9880488 C132.176816,50.905122 131.896846,50.81 131.624243,50.705122 C131.349184,50.6002439 131.103596,50.4709756 130.887478,50.314878 C130.668904,50.1563415 130.494537,49.9660976 130.366831,49.7392683 C130.236669,49.512439 130.17036,49.2343902 130.17036,48.907561 C130.17036,48.6490244 130.229301,48.3978049 130.34964,48.1490244 C130.469978,47.9026829 130.64189,47.6831707 130.865375,47.4953659 C131.091316,47.307561 131.361463,47.1563415 131.683184,47.0392683 C132.002449,46.9270732 132.356096,46.8685366 132.751493,46.8685366 C133.129699,46.8685366 133.46861,46.9173171 133.768228,47.014878 C134.06539,47.112439 134.325713,47.2465854 134.551654,47.4173171 C134.77514,47.5880488 134.966699,47.7880488 135.118963,48.0173171 C135.273684,48.2490244 135.396478,48.4929268 135.487346,48.7514634 L134.753037,48.907561 C134.659713,48.6978049 134.556566,48.51 134.44114,48.3441463 C134.325713,48.1758537 134.188184,48.0319512 134.031007,47.914878 C133.871375,47.7953659 133.687184,47.705122 133.478434,47.6417073 C133.267228,47.5807317 133.024096,47.5465854 132.751493,47.5465854 C132.461699,47.5465854 132.203831,47.5856098 131.97789,47.6636585 C131.747037,47.7392683 131.555478,47.8441463 131.398301,47.9709756 C131.238669,48.1002439 131.118331,48.2465854 131.034831,48.41 C130.948875,48.5734146 130.907125,48.7392683 130.907125,48.907561 C130.907125,49.2221951 131.020096,49.4685366 131.243581,49.6441463 C131.469522,49.8221951 131.751949,49.9734146 132.093316,50.0929268 C132.432228,50.2173171 132.803066,50.3295122 133.198463,50.4343902 C133.59386,50.5392683 133.962243,50.6734146 134.30361,50.8368293 C134.644978,51.0026829 134.927404,51.212439 135.15089,51.4758537 C135.376831,51.7368293 135.487346,52.0831707 135.487346,52.514878 C135.487346,52.8002439 135.425949,53.0782927 135.298243,53.3417073 C135.172993,53.607561 134.988801,53.8417073 134.745669,54.0417073 C134.504993,54.2441463 134.210287,54.407561 133.866463,54.5295122 C133.52264,54.6514634 133.13461,54.712439 132.697463,54.712439 C132.292243,54.712439 131.926316,54.6563415 131.60214,54.5441463 C131.280419,54.4319512 130.995537,54.2807317 130.749949,54.0904878 C130.50436,53.8978049 130.300522,53.6709756 130.133522,53.41 C129.968978,53.1490244 129.841272,52.8685366 129.747949,52.5685366 L130.487169,52.4636585 C130.578037,52.6856098 130.691007,52.8929268 130.823625,53.0856098 C130.956243,53.2782927 131.115875,53.4417073 131.29761,53.5831707 C131.479346,53.7221951 131.688096,53.8319512 131.918949,53.912439 C132.152257,53.9929268 132.410125,54.0319512 132.697463,54.0319512 C133.029007,54.0319512 133.321257,53.9904878 133.576669,53.905122 C133.834537,53.8221951 134.048199,53.71 134.22011,53.5660976 C134.392022,53.4246341 134.522184,53.2612195 134.613051,53.0807317 C134.706375,52.8978049 134.753037,52.71 134.753037,52.514878 C134.753037,52.2782927 134.686728,52.0807317 134.556566,51.9246341" id="Fill-34" fill="#FFFFFF"></path>
                        <mask id="mask-4" fill="white">
                            <use xlink:href="#path-3"></use>
                        </mask>
                        <g id="Clip-37"></g>
                        <polygon id="Fill-36" fill="#FFFFFF" mask="url(#mask-4)" points="88.0581176 65.0665854 88.7948824 65.0665854 88.7948824 57.8519512 88.0581176 57.8519512"></polygon>
                        <polygon id="Fill-38" fill="#FFFFFF" mask="url(#mask-4)" points="95.4292029 63.8112195 95.4292029 57.8502439 96.1659676 57.8502439 96.1659676 65.0673171 95.3776294 65.0673171 91.2173647 59.1063415 91.1633353 59.1063415 91.1633353 65.0673171 90.4265706 65.0673171 90.4265706 57.8502439 91.2173647 57.8502439 95.3776294 63.8112195"></polygon>
                        <path d="M103.709456,61.7460976 C103.937853,61.6582927 104.131868,61.5412195 104.293956,61.39 C104.456044,61.2412195 104.578838,61.0656098 104.66725,60.8631707 C104.755662,60.6607317 104.797412,60.4412195 104.797412,60.2046341 C104.797412,59.9680488 104.755662,59.7460976 104.66725,59.5460976 C104.578838,59.3436585 104.456044,59.1656098 104.293956,59.0168293 C104.131868,58.8656098 103.937853,58.7485366 103.709456,58.6607317 C103.481059,58.5729268 103.230559,58.5314634 102.9555,58.5314634 L100.428397,58.5314634 L100.428397,61.8778049 L102.9555,61.8778049 C103.230559,61.8778049 103.481059,61.8339024 103.709456,61.7460976 Z M100.428397,65.0656098 L99.6916324,65.0656098 L99.6916324,57.8509756 L102.9555,57.8509756 C103.350897,57.8509756 103.707,57.9095122 104.023809,58.0290244 C104.343074,58.1460976 104.615676,58.3095122 104.841618,58.5192683 C105.065103,58.7290244 105.237015,58.9753659 105.357353,59.2631707 C105.475235,59.5485366 105.536632,59.8631707 105.536632,60.2046341 C105.536632,60.4339024 105.512074,60.6412195 105.467868,60.8265854 C105.421206,61.0095122 105.359809,61.1753659 105.283676,61.3217073 C105.205088,61.4680488 105.119132,61.5973171 105.020897,61.7046341 C104.922662,61.8119512 104.819515,61.9070732 104.713912,61.992439 C104.475691,62.1802439 104.205544,62.3168293 103.903471,62.3997561 L105.377,65.0656098 L104.588662,65.0656098 L103.166706,62.5558537 L100.428397,62.5558537 L100.428397,65.0656098 Z" id="Fill-39" fill="#FFFFFF" mask="url(#mask-4)"></path>
                        <polygon id="Fill-40" fill="#FFFFFF" mask="url(#mask-4)" points="106.904559 65.0665854 107.641324 65.0665854 107.641324 57.8519512 106.904559 57.8519512"></polygon>
                        <path d="M113.752541,64.4865854 C114.101276,64.3426829 114.40335,64.152439 114.658762,63.9158537 C114.914174,63.6792683 115.115556,63.4109756 115.262909,63.1109756 C115.410262,62.8109756 115.483938,62.5060976 115.483938,62.1914634 L113.062438,62.1914634 L113.062438,61.5109756 L116.220703,61.5109756 L116.220703,61.8256098 C116.220703,62.3329268 116.132291,62.8060976 115.953012,63.2426829 C115.773732,63.6768293 115.525688,64.054878 115.206424,64.3719512 C114.884703,64.6890244 114.506497,64.9353659 114.066894,65.1134146 C113.629747,65.2914634 113.153306,65.3792683 112.642482,65.3792683 C112.151306,65.3792683 111.679776,65.2768293 111.23035,65.0719512 C110.780924,64.8670732 110.383071,64.5865854 110.041703,64.2304878 C109.697879,63.8743902 109.420365,63.4597561 109.214071,62.9865854 C109.007776,62.5109756 108.902174,62.0012195 108.902174,61.4573171 C108.902174,60.9158537 109.007776,60.4060976 109.214071,59.9304878 C109.420365,59.4573171 109.697879,59.0426829 110.041703,58.6865854 C110.383071,58.3329268 110.780924,58.05 111.23035,57.845122 C111.679776,57.6402439 112.151306,57.5378049 112.642482,57.5378049 C113.089453,57.5378049 113.497129,57.6036585 113.863056,57.7353659 C114.228982,57.8695122 114.548247,58.0378049 114.825762,58.247561 C115.103276,58.4573171 115.334129,58.6939024 115.515865,58.952439 C115.6976,59.2158537 115.827762,59.4743902 115.90635,59.7329268 L115.169585,59.8378049 C115.090997,59.6426829 114.978026,59.447561 114.830674,59.252439 C114.683321,59.0573171 114.506497,58.8817073 114.295291,58.7304878 C114.084085,58.5768293 113.843409,58.452439 113.56835,58.3573171 C113.293291,58.2646341 112.986306,58.2158537 112.642482,58.2158537 C112.261821,58.2158537 111.893438,58.3012195 111.529968,58.4719512 C111.168953,58.645122 110.847232,58.8768293 110.567262,59.1670732 C110.287291,59.4597561 110.06135,59.8060976 109.89435,60.1987805 C109.724894,60.5914634 109.641394,61.0134146 109.641394,61.4573171 C109.641394,61.9109756 109.724894,62.3353659 109.89435,62.7280488 C110.06135,63.1231707 110.287291,63.4670732 110.567262,63.7597561 C110.847232,64.052439 111.168953,64.2817073 111.529968,64.45 C111.893438,64.6158537 112.261821,64.7012195 112.642482,64.7012195 C113.035424,64.7012195 113.403806,64.6304878 113.752541,64.4865854" id="Fill-41" fill="#FFFFFF" mask="url(#mask-4)"></path>
                        <polygon id="Fill-42" fill="#FFFFFF" mask="url(#mask-4)" points="118.220528 57.8507317 118.220528 61.0921951 122.380793 61.0921951 122.380793 57.8507317 123.117557 57.8507317 123.117557 65.0653659 122.380793 65.0653659 122.380793 61.7726829 118.220528 61.7726829 118.220528 65.0653659 117.483763 65.0653659 117.483763 57.8507317"></polygon>
                        <polygon id="Fill-43" fill="#FFFFFF" mask="url(#mask-4)" points="124.064054 57.8507317 129.960628 57.8507317 129.960628 58.5312195 127.381951 58.5312195 127.381951 65.0653659 126.642731 65.0653659 126.642731 58.5312195 124.064054 58.5312195"></polygon>
                        <path d="M137.134751,62.5929268 C137.00459,62.4368293 136.832678,62.3026829 136.614104,62.1904878 C136.395531,62.0807317 136.149943,61.9831707 135.87734,61.9026829 C135.602281,61.8221951 135.324766,61.7417073 135.039884,61.6563415 C134.755001,61.5734146 134.477487,61.4807317 134.202428,61.3758537 C133.927369,61.2709756 133.681781,61.1392683 133.465663,60.9831707 C133.24709,60.8246341 133.072722,60.6343902 132.945016,60.407561 C132.814854,60.1807317 132.748546,59.905122 132.748546,59.5758537 C132.748546,59.3173171 132.807487,59.0660976 132.927825,58.8173171 C133.048163,58.5709756 133.220075,58.3514634 133.44356,58.1636585 C133.669501,57.9758537 133.939649,57.8246341 134.261369,57.71 C134.580634,57.5953659 134.936737,57.5368293 135.329678,57.5368293 C135.707884,57.5368293 136.046796,57.5856098 136.346413,57.6831707 C136.643575,57.7807317 136.903899,57.914878 137.12984,58.0856098 C137.353325,58.2563415 137.544884,58.4563415 137.699604,58.6856098 C137.854325,58.9173171 137.974663,59.1612195 138.065531,59.4197561 L137.331222,59.5758537 C137.237899,59.3660976 137.134751,59.1782927 137.019325,59.012439 C136.903899,58.8441463 136.766369,58.7002439 136.609193,58.5831707 C136.44956,58.4636585 136.267825,58.3734146 136.056619,58.31 C135.845413,58.2490244 135.602281,58.2173171 135.329678,58.2173171 C135.04234,58.2173171 134.784472,58.2539024 134.556075,58.3319512 C134.327678,58.407561 134.133663,58.512439 133.976487,58.6392683 C133.81931,58.7685366 133.696516,58.914878 133.613016,59.0807317 C133.52706,59.2417073 133.48531,59.407561 133.48531,59.5758537 C133.48531,59.8904878 133.598281,60.1368293 133.821766,60.312439 C134.047707,60.4904878 134.330134,60.6417073 134.671501,60.7612195 C135.010413,60.8856098 135.381251,60.9978049 135.776649,61.1026829 C136.172046,61.207561 136.540428,61.3417073 136.881796,61.505122 C137.223163,61.6709756 137.50559,61.8807317 137.729075,62.1441463 C137.955016,62.405122 138.065531,62.7514634 138.065531,63.1831707 C138.065531,63.4685366 138.004134,63.7465854 137.876428,64.01 C137.751178,64.2758537 137.566987,64.51 137.323854,64.71 C137.083178,64.912439 136.788472,65.0758537 136.444649,65.1978049 C136.100825,65.3197561 135.712796,65.3807317 135.275649,65.3807317 C134.870428,65.3807317 134.504501,65.3246341 134.180325,65.212439 C133.858604,65.1002439 133.573722,64.9490244 133.328134,64.7587805 C133.082546,64.5660976 132.878707,64.3392683 132.711707,64.0782927 C132.547163,63.8173171 132.419457,63.5368293 132.32859,63.2368293 L133.065354,63.1319512 C133.156222,63.3539024 133.269193,63.5636585 133.40181,63.7539024 C133.534428,63.9465854 133.69406,64.112439 133.875796,64.2514634 C134.057531,64.3904878 134.266281,64.5002439 134.497134,64.5807317 C134.730443,64.6612195 134.98831,64.7002439 135.275649,64.7002439 C135.607193,64.7002439 135.899443,64.6587805 136.154854,64.5734146 C136.412722,64.4904878 136.626384,64.3782927 136.798296,64.2343902 C136.970207,64.0929268 137.100369,63.9295122 137.193693,63.7490244 C137.28456,63.5660976 137.331222,63.3782927 137.331222,63.1831707 C137.331222,62.9465854 137.264913,62.7490244 137.134751,62.5929268" id="Fill-44" fill="#FFFFFF" mask="url(#mask-4)"></path>
                        <path d="M144.295122,59.6597561 C144.199343,59.4304878 144.064269,59.2304878 143.88499,59.0646341 C143.70571,58.8963415 143.489593,58.7646341 143.236637,58.6719512 C142.983681,58.5768293 142.701254,58.5304878 142.384446,58.5304878 L140.066093,58.5304878 L140.066093,62.2963415 L142.384446,62.2963415 C142.701254,62.2963415 142.983681,62.247561 143.236637,62.152439 C143.489593,62.0597561 143.70571,61.9304878 143.88499,61.7621951 C144.064269,61.5939024 144.199343,61.3963415 144.295122,61.1670732 C144.388446,60.9353659 144.437563,60.6841463 144.437563,60.4134146 C144.437563,60.1402439 144.388446,59.8890244 144.295122,59.6597561 M144.972946,61.4329268 C144.840328,61.7426829 144.653681,62.0134146 144.410549,62.2426829 C144.169872,62.4719512 143.875166,62.652439 143.531343,62.7817073 C143.187519,62.9109756 142.804401,62.9743902 142.384446,62.9743902 L140.066093,62.9743902 L140.066093,65.0670732 L139.331784,65.0670732 L139.331784,57.85 L142.384446,57.85 C142.804401,57.85 143.187519,57.9158537 143.531343,58.0426829 C143.875166,58.1743902 144.169872,58.352439 144.410549,58.5841463 C144.653681,58.8134146 144.840328,59.0841463 144.972946,59.3987805 C145.108019,59.7109756 145.174328,60.05 145.174328,60.4134146 C145.174328,60.7817073 145.108019,61.1231707 144.972946,61.4329268" id="Fill-45" fill="#FFFFFF" mask="url(#mask-4)"></path>
                        <path d="M152.760057,60.1980488 C152.588146,59.8053659 152.359749,59.4614634 152.074866,59.1687805 C151.789984,58.8760976 151.460896,58.6443902 151.085146,58.4712195 C150.709396,58.3029268 150.31891,58.217561 149.911234,58.217561 C149.503557,58.217561 149.113072,58.3029268 148.737322,58.4712195 C148.361572,58.6443902 148.032484,58.8760976 147.747601,59.1687805 C147.462719,59.4614634 147.234322,59.8053659 147.06241,60.1980488 C146.890499,60.5931707 146.804543,61.0126829 146.804543,61.4590244 C146.804543,61.9053659 146.890499,62.324878 147.06241,62.72 C147.234322,63.1126829 147.462719,63.4565854 147.747601,63.7492683 C148.032484,64.0419512 148.361572,64.2736585 148.737322,64.4443902 C149.113072,64.615122 149.503557,64.7004878 149.911234,64.7004878 C150.31891,64.7004878 150.709396,64.615122 151.085146,64.4443902 C151.460896,64.2736585 151.789984,64.0419512 152.074866,63.7492683 C152.359749,63.4565854 152.588146,63.1126829 152.760057,62.72 C152.931969,62.324878 153.017925,61.9053659 153.017925,61.4590244 C153.017925,61.0126829 152.931969,60.5931707 152.760057,60.1980488 M146.377219,59.9517073 C146.585969,59.4785366 146.86594,59.0614634 147.222043,58.7029268 C147.57569,58.3443902 147.983366,58.0614634 148.447528,57.8517073 C148.91169,57.6419512 149.397954,57.5370732 149.911234,57.5370732 C150.424513,57.5370732 150.910778,57.6419512 151.37494,57.8517073 C151.836646,58.0614634 152.246778,58.3419512 152.602881,58.6980488 C152.956528,59.0541463 153.236499,59.4687805 153.445249,59.9419512 C153.651543,60.415122 153.75469,60.922439 153.75469,61.4590244 C153.75469,61.9956098 153.651543,62.5004878 153.445249,62.9760976 C153.236499,63.4492683 152.956528,63.8639024 152.602881,64.22 C152.246778,64.5736585 151.836646,64.8565854 151.37494,65.0663415 C150.910778,65.2760976 150.424513,65.3809756 149.911234,65.3809756 C149.397954,65.3809756 148.91169,65.2760976 148.447528,65.0663415 C147.983366,64.8565854 147.57569,64.5736585 147.222043,64.22 C146.86594,63.8639024 146.585969,63.4492683 146.377219,62.9760976 C146.170925,62.5004878 146.067778,61.9956098 146.067778,61.4590244 C146.067778,60.9297561 146.170925,60.4273171 146.377219,59.9517073" id="Fill-46" fill="#FFFFFF" mask="url(#mask-4)"></path>
                        <polygon id="Fill-47" fill="#FFFFFF" mask="url(#mask-4)" points="153.911129 57.8507317 159.807703 57.8507317 159.807703 58.5312195 157.229026 58.5312195 157.229026 65.0653659 156.489806 65.0653659 156.489806 58.5312195 153.911129 58.5312195"></polygon>
                        <path d="M164.772024,62.5929268 C164.641862,62.4368293 164.467494,62.3026829 164.251376,62.1904878 C164.032803,62.0807317 163.787215,61.9831707 163.514612,61.9026829 C163.239553,61.8221951 162.962038,61.7417073 162.677156,61.6563415 C162.392274,61.5734146 162.112303,61.4807317 161.8397,61.3758537 C161.564641,61.2709756 161.319053,61.1392683 161.102935,60.9831707 C160.884362,60.8246341 160.709994,60.6343902 160.579832,60.407561 C160.452126,60.1807317 160.385818,59.905122 160.385818,59.5758537 C160.385818,59.3173171 160.444759,59.0660976 160.565097,58.8173171 C160.682979,58.5709756 160.857347,58.3514634 161.080832,58.1636585 C161.306774,57.9758537 161.576921,57.8246341 161.898641,57.71 C162.21545,57.5953659 162.571553,57.5368293 162.96695,57.5368293 C163.345156,57.5368293 163.684068,57.5856098 163.981229,57.6831707 C164.280847,57.7807317 164.541171,57.914878 164.767112,58.0856098 C164.990597,58.2563415 165.182156,58.4563415 165.334421,58.6856098 C165.489141,58.9173171 165.611935,59.1612195 165.702803,59.4197561 L164.968494,59.5758537 C164.875171,59.3660976 164.772024,59.1782927 164.656597,59.012439 C164.541171,58.8441463 164.403641,58.7002439 164.246465,58.5831707 C164.086832,58.4636585 163.902641,58.3734146 163.693891,58.31 C163.482685,58.2490244 163.239553,58.2173171 162.96695,58.2173171 C162.677156,58.2173171 162.419288,58.2539024 162.193347,58.3319512 C161.962494,58.407561 161.770935,58.512439 161.613759,58.6392683 C161.454126,58.7685366 161.333788,58.914878 161.250288,59.0807317 C161.166788,59.2417073 161.122582,59.407561 161.122582,59.5758537 C161.122582,59.8904878 161.235553,60.1368293 161.459038,60.312439 C161.684979,60.4904878 161.967406,60.6417073 162.306318,60.7612195 C162.647685,60.8856098 163.018524,60.9978049 163.413921,61.1026829 C163.809318,61.207561 164.1777,61.3417073 164.519068,61.505122 C164.860435,61.6709756 165.142862,61.8807317 165.366347,62.1441463 C165.592288,62.405122 165.702803,62.7514634 165.702803,63.1831707 C165.702803,63.4685366 165.641406,63.7465854 165.5137,64.01 C165.38845,64.2758537 165.204259,64.51 164.961126,64.71 C164.72045,64.912439 164.425744,65.0758537 164.081921,65.1978049 C163.738097,65.3197561 163.347612,65.3807317 162.912921,65.3807317 C162.5077,65.3807317 162.141774,65.3246341 161.817597,65.212439 C161.495876,65.1002439 161.210994,64.9490244 160.965406,64.7587805 C160.719818,64.5660976 160.515979,64.3392683 160.348979,64.0782927 C160.184435,63.8173171 160.056729,63.5368293 159.963406,63.2368293 L160.702626,63.1319512 C160.793494,63.3539024 160.906465,63.5636585 161.039082,63.7539024 C161.1717,63.9465854 161.331332,64.112439 161.513068,64.2514634 C161.694803,64.3904878 161.901097,64.5002439 162.134406,64.5807317 C162.365259,64.6612195 162.625582,64.7002439 162.912921,64.7002439 C163.242009,64.7002439 163.536715,64.6587805 163.792126,64.5734146 C164.047538,64.4904878 164.263656,64.3782927 164.435568,64.2343902 C164.607479,64.0929268 164.737641,63.9295122 164.828509,63.7490244 C164.921832,63.5660976 164.968494,63.3782927 164.968494,63.1831707 C164.968494,62.9465854 164.902185,62.7490244 164.772024,62.5929268" id="Fill-48" fill="#FFFFFF" mask="url(#mask-4)"></path>
                    </g>
                </g>
            </g>
        </g>
    </g>
</svg>