<?xml version="1.0" encoding="UTF-8"?>
<svg width="58px" height="67px" viewBox="0 0 58 67" version="1.1" xmlns="http://www.w3.org/2000/svg" xmlns:xlink="http://www.w3.org/1999/xlink">
    <!-- Generator: sketchtool 52.6 (67491) - http://www.bohemiancoding.com/sketch -->
    <title>81C607F4-5E76-4F21-A716-7EF3C3E4B214</title>
    <desc>Created with sketchtool.</desc>
    <defs>
        <polygon id="path-1" points="0.0990995829 1.54006972 13.7418666 1.54006972 13.7418666 24.1787567 0.0990995829 24.1787567"></polygon>
    </defs>
    <g id="Promo-Responsive" stroke="none" stroke-width="1" fill="none" fill-rule="evenodd">
        <g id="Mobile-catalog" transform="translate(-16.000000, -7.000000)">
            <g id="navigation/desktop/topnav">
                <g id="pr-punch-symbol-orange" transform="translate(16.000000, 6.000000)">
                    <g id="pr-punch-favicon">
                        <path d="M28.8563381,10.396486 C44.7989631,10.396486 57.7159059,23.2552213 57.7159059,39.1230158 C57.7159059,54.9840407 44.7989631,67.8478532 28.8563381,67.8478532 C12.9273118,67.8478532 0.000169982135,54.9840407 0.000169982135,39.1230158 C0.000169982135,23.2552213 12.9273118,10.396486 28.8563381,10.396486" id="Fill-1" fill="#FE5001"></path>
                        <path d="M16.7981449,24.0496269 L19.5348573,24.0496269 C19.6929407,24.0496269 19.8476245,24.0140868 19.9989086,23.9413143 C20.1518925,23.8685417 20.2878782,23.7720758 20.4102653,23.6502242 C20.5309527,23.5283725 20.6278425,23.3929818 20.7009348,23.2423596 C20.7740271,23.0917374 20.8097234,22.936038 20.8097234,22.7786463 C20.8097234,22.6212545 20.7740271,22.4672475 20.7009348,22.3166253 C20.6278425,22.1643108 20.5309527,22.02892 20.4102653,21.9070683 C20.2878782,21.7869091 20.1518925,21.6887508 19.9989086,21.6176706 C19.8476245,21.5448981 19.6929407,21.5076657 19.5348573,21.5076657 L16.7981449,21.5076657 L16.7981449,24.0496269 Z M21.804119,18.2481335 C22.4789481,18.496914 23.0534877,18.8370832 23.5294377,19.2737184 C24.0019881,19.7103535 24.3674497,20.2282232 24.6224229,20.8273272 C24.8773961,21.4264313 25.0048827,22.0763068 25.0048827,22.7786463 C25.0048827,23.4809858 24.8773961,24.1308614 24.6224229,24.7316578 C24.3674497,25.3290695 24.0019881,25.8486315 23.5294377,26.2835743 C23.0534877,26.718517 22.4789481,27.0603787 21.804119,27.3091592 C21.1292899,27.5579397 20.3728694,27.6814837 19.5348574,27.6814837 L16.798145,27.6814837 L16.798145,30.5873076 L12.6046856,30.5873076 L12.6046856,17.8758089 L19.5348574,17.8758089 C20.3728694,17.8758089 21.1292899,18.0010454 21.804119,18.2481335 Z" id="Fill-3" fill="#FFFFFF"></path>
                        <path d="M30.4830666,23.6867796 L33.0361982,23.6867796 C33.3149689,23.6867796 33.5682423,23.5750822 33.7926187,23.3516875 C34.018695,23.1266004 34.1291834,22.8744351 34.1291834,22.5968841 C34.1291834,22.3193331 34.018695,22.0671678 33.7926187,21.8437731 C33.5682423,21.6203784 33.3149689,21.5069886 33.0361982,21.5069886 L30.4830666,21.5069886 L30.4830666,23.6867796 Z M34.0390926,30.5866306 L32.3069746,27.1375513 L30.4830663,27.1375513 L30.4830663,30.5866306 L26.2879072,30.5866306 L26.2879072,17.8751319 L33.036198,17.8751319 C33.8521122,17.8751319 34.5864351,17.9935988 35.2442659,18.2305326 C35.900397,18.465774 36.4562385,18.7924042 36.9117907,19.2104231 C37.3690426,19.6284421 37.717506,20.1276954 37.9605804,20.7081833 C38.2036549,21.2903635 38.326042,21.9199304 38.326042,22.5968842 C38.326042,23.287377 38.212154,23.8627876 37.9877776,24.3214238 C37.7634012,24.7817523 37.5101278,25.1523845 37.2313571,25.4299355 C36.9168901,25.7565657 36.5514285,26.02227 36.138372,26.2287409 L38.5079229,30.5866306 L34.0390926,30.5866306 Z" id="Fill-5" fill="#FFFFFF"></path>
                        <path d="M16.7981449,38.8554515 L19.5348573,38.8554515 C19.6929407,38.8554515 19.8476245,38.8199115 19.9989086,38.7471389 C20.1518925,38.6743664 20.2878782,38.5762081 20.4102653,38.4560488 C20.5309527,38.3358895 20.6278425,38.1988064 20.7009348,38.0481842 C20.7740271,37.8958696 20.8097234,37.7418627 20.8097234,37.5844709 C20.8097234,37.4270792 20.7740271,37.2730722 20.7009348,37.12245 C20.6278425,36.9701354 20.5309527,36.8347447 20.4102653,36.712893 C20.2878782,36.5927337 20.1518925,36.4945754 19.9989086,36.4234953 C19.8476245,36.3490304 19.6929407,36.3134903 19.5348573,36.3134903 L16.7981449,36.3134903 L16.7981449,38.8554515 Z M21.804119,33.0539582 C22.4789481,33.3027386 23.0534877,33.6446003 23.5294377,34.079543 C24.0019881,34.5161782 24.3674497,35.0340478 24.6224229,35.6314594 C24.8773961,36.2322559 25.0048827,36.8838238 25.0048827,37.5844709 C25.0048827,38.2868104 24.8773961,38.936686 24.6224229,39.53579 C24.3674497,40.134894 24.0019881,40.6527636 23.5294377,41.0877064 C23.0534877,41.5243416 22.4789481,41.8662032 21.804119,42.1149837 C21.1292899,42.3620718 20.3728694,42.4873082 19.5348574,42.4873082 L16.798145,42.4873082 L16.798145,45.3914397 L12.6046856,45.3914397 L12.6046856,32.6816336 L19.5348574,32.6816336 C20.3728694,32.6816336 21.1292899,32.8051777 21.804119,33.0539582 Z" id="Fill-7" fill="#FFFFFF"></path>
                        <path d="M38.3257026,32.6809566 L38.3257026,40.3085325 C38.3257026,41.1310313 38.1829176,41.8841423 37.8956478,42.5678655 C37.6117776,43.2515888 37.2072201,43.847308 36.685375,44.3482538 C36.16183,44.8508919 35.5294964,45.2418327 34.7866744,45.5193837 C34.0455523,45.7986271 33.2194391,45.9357102 32.306635,45.9357102 C31.3955307,45.9357102 30.5677177,45.7986271 29.8265956,45.5193837 C29.0854734,45.2418327 28.4531399,44.8508919 27.9312947,44.3482538 C27.4060499,43.847308 27.0031922,43.2515888 26.7159224,42.5678655 C26.4320522,41.8841423 26.2875674,41.1310313 26.2875674,40.3085325 L26.2875674,32.6809566 L30.4827266,32.6809566 L30.4827266,40.3085325 C30.4827266,40.8534802 30.651009,41.2918078 30.984174,41.6252075 C31.3190388,41.9569148 31.7609923,42.1227684 32.306635,42.1227684 C32.8539775,42.1227684 33.2942312,41.9569148 33.6290961,41.6252075 C33.9639609,41.2918078 34.1305434,40.8534802 34.1305434,40.3085325 L34.1305434,32.6809566 L38.3257026,32.6809566 Z" id="Fill-9" fill="#FFFFFF"></path>
                        <polygon id="Fill-11" fill="#FFFFFF" points="47.9983676 32.6809566 52.1918268 32.6809566 52.1918268 45.3924552 47.632906 45.3924552 44.5324319 39.7618926 44.350551 39.7618926 44.350551 45.3924552 40.1553919 45.3924552 40.1553919 32.6809566 44.7143127 32.6809566 47.8334849 38.3098268 47.9983676 38.3098268"></polygon>
                        <path d="M20.135575,56.8023414 C20.4160456,56.7177222 20.6642195,56.60264 20.8834965,56.457095 C21.1027735,56.3115499 21.2948533,56.1389267 21.4580361,55.9392254 C21.6229188,55.739524 21.7708033,55.5245912 21.9050892,55.294427 L26.1002486,55.8410671 C25.9659627,56.4334016 25.7109895,57.0189665 25.3336291,57.6011467 C24.9562687,58.1816345 24.4769191,58.7045813 23.8938803,59.1716793 C23.3091417,59.6387774 22.6343126,60.0161791 21.8693929,60.3055768 C21.1027735,60.5983593 20.2630616,60.7422119 19.3519573,60.7422119 C18.3422634,60.7422119 17.3971626,60.5543573 16.5166551,60.1803403 C15.6344478,59.8029387 14.861029,59.2986081 14.1997984,58.663964 C13.5368681,58.0293199 13.0150229,57.2914404 12.6308632,56.457095 C12.2484034,55.6227495 12.0580234,54.7511716 12.0580234,53.8423613 C12.0580234,52.9352433 12.2484034,52.0670502 12.6308632,51.2360895 C13.0150229,50.4068213 13.5368681,49.6757113 14.1997984,49.0393748 C14.861029,48.4047307 15.6344478,47.895323 16.5166551,47.5145366 C17.3971626,47.1337501 18.3422634,46.9425107 19.3519573,46.9425107 C20.2154666,46.9425107 20.9990843,47.0694395 21.7045103,47.3232971 C22.4099362,47.5788472 23.030371,47.9139392 23.5658148,48.3319582 C24.0995587,48.7499771 24.5500114,49.2306142 24.9137732,49.7755619 C25.277535,50.3188173 25.5529061,50.8891508 25.734787,51.4831776 L21.5396276,52.026433 C21.4070415,51.8436555 21.2659563,51.6761094 21.1214715,51.5187177 C20.9752868,51.361326 20.8104042,51.2276276 20.6285233,51.119315 C20.4466424,51.0093101 20.2358645,50.9213061 19.9995893,50.8553031 C19.7616143,50.7893001 19.4862432,50.7554524 19.1700764,50.7554524 C18.8046148,50.7554524 18.4459525,50.8400716 18.0940894,51.0093101 C17.7405266,51.1802409 17.4277594,51.4070204 17.155788,51.6896485 C16.8804169,51.9756615 16.6611399,52.3022916 16.4962572,52.6712314 C16.3330744,53.0401712 16.251483,53.4311119 16.251483,53.8423613 C16.251483,54.2553031 16.3330744,54.6445514 16.4962572,55.0134912 C16.6611399,55.382431 16.8804169,55.7090611 17.155788,55.9933817 C17.4277594,56.2793946 17.7405266,56.5061741 18.0940894,56.6754125 C18.4459525,56.844651 18.8046148,56.9309626 19.1700764,56.9309626 C19.5338382,56.9309626 19.8551045,56.8869606 20.135575,56.8023414" id="Fill-13" fill="#FFFFFF"></path>
                        <polygon id="Fill-15" fill="#FFFFFF" points="31.3951924 47.4876282 31.3951924 52.0266029 35.043009 52.0266029 35.043009 47.4876282 39.2364682 47.4876282 39.2364682 60.1974342 35.043009 60.1974342 35.043009 55.8412371 31.3951924 55.8412371 31.3951924 60.1974342 27.2000334 60.1974342 27.2000334 47.4876282"></polygon>
                        <path d="M44.5166229,24.3056836 C46.3609291,24.3056836 47.8533723,25.7915971 47.8533723,27.6261417 C47.8533723,29.4589939 46.3609291,30.9465998 44.5166229,30.9465998 C42.6774162,30.9465998 41.1815734,29.4589939 41.1815734,27.6261417 C41.1815734,25.7915971 42.6774162,24.3056836 44.5166229,24.3056836" id="Fill-17" fill="#FFFFFF"></path>
                        <g id="Group-21" transform="translate(40.795714, 0.152822)">
                            <mask id="mask-2" fill="white">
                                <use xlink:href="#path-1"></use>
                            </mask>
                            <g id="Clip-20"></g>
                            <path d="M3.34405874,23.1836335 C3.6976216,23.1328619 4.05968357,23.1142457 4.42854483,23.1700944 C5.22576109,23.2902537 5.9158886,23.6608858 6.45303218,24.1787554 L13.7418666,13.817979 L6.85928951,13.5776604 L10.6107955,6.27332997 L2.08449104,1.53973121 L0.0990995829,18.4432652 L5.41784092,18.0303234 L3.34405874,23.1836335 Z" id="Fill-19" fill="#FFFFFF" mask="url(#mask-2)"></path>
                        </g>
                    </g>
                </g>
            </g>
        </g>
    </g>
</svg>