<?xml version="1.0" encoding="UTF-8"?>
<svg width="68px" height="78px" viewBox="0 0 68 78" version="1.1" xmlns="http://www.w3.org/2000/svg" xmlns:xlink="http://www.w3.org/1999/xlink">
    <!-- Generator: sketchtool 52.6 (67491) - http://www.bohemiancoding.com/sketch -->
    <title>1A26FFFB-B300-4D19-9B93-D2DCC8C52A7D</title>
    <desc>Created with sketchtool.</desc>
    <defs>
        <polygon id="path-1" points="0.116587746 1.81184673 16.1669021 1.81184673 16.1669021 28.4455961 0.116587746 28.4455961"></polygon>
    </defs>
    <g id="Promo-Desktop" stroke="none" stroke-width="1" fill="none" fill-rule="evenodd">
        <g id="Homepage" transform="translate(-73.000000, -3872.000000)">
            <g id="layout/desktop/footer" transform="translate(0.000000, 3807.000000)">
                <g id="pr-punch-symbol-purple" transform="translate(73.000000, 63.000000)">
                    <g id="pr-punch-favicon">
                        <path d="M33.9486335,12.23116 C52.7046631,12.23116 67.9010667,27.3590839 67.9010667,46.0270774 C67.9010667,64.6871067 52.7046631,79.8210037 33.9486335,79.8210037 C15.2086023,79.8210037 0.000199978985,64.6871067 0.000199978985,46.0270774 C0.000199978985,27.3590839 15.2086023,12.23116 33.9486335,12.23116" id="Fill-1" fill="#FE5001"></path>
                        <path d="M19.7625237,28.2936787 L22.9821854,28.2936787 C23.1681659,28.2936787 23.3501467,28.2518668 23.528128,28.1662521 C23.7081091,28.0806373 23.8680923,27.967148 24.0120772,27.8237931 C24.1540623,27.6804382 24.2680503,27.521155 24.3540413,27.3439524 C24.4400322,27.1667498 24.4820278,26.9835741 24.4820278,26.7984074 C24.4820278,26.6132406 24.4400322,26.4320559 24.3540413,26.2548533 C24.2680503,26.0756597 24.1540623,25.9163765 24.0120772,25.7730216 C23.8680923,25.6316577 23.7081091,25.5161774 23.528128,25.4325537 C23.3501467,25.346939 23.1681659,25.3031361 22.9821854,25.3031361 L19.7625237,25.3031361 L19.7625237,28.2936787 Z M25.6519051,21.4683923 C26.4458217,21.7610753 27.1217506,22.1612744 27.6816918,22.6749628 C28.2376334,23.1886512 28.6675882,23.7979096 28.9675567,24.5027379 C29.2675252,25.2075662 29.4175095,25.9721257 29.4175095,26.7984074 C29.4175095,27.6246892 29.2675252,28.3892487 28.9675567,29.096068 C28.6675882,29.7989053 28.2376334,30.4101547 27.6816918,30.9218521 C27.1217506,31.4335494 26.4458217,31.8357396 25.6519051,32.1284225 C24.8579885,32.4211055 23.968082,32.5664514 22.9821855,32.5664514 L19.7625238,32.5664514 L19.7625238,35.9850677 L14.8290421,35.9850677 L14.8290421,21.0303635 L22.9821855,21.0303635 C23.968082,21.0303635 24.8579885,21.1777005 25.6519051,21.4683923 Z" id="Fill-3" fill="#FFFFFF"></path>
                        <path d="M35.8624317,27.8667995 L38.8661161,27.8667995 C39.1940816,27.8667995 39.4920503,27.7353909 39.7560226,27.4725736 C40.0219946,27.2077652 40.151981,26.9111002 40.151981,26.5845695 C40.151981,26.2580389 40.0219946,25.9613739 39.7560226,25.6985566 C39.4920503,25.4357393 39.1940816,25.3023396 38.8661161,25.3023396 L35.8624317,25.3023396 L35.8624317,27.8667995 Z M40.0459918,35.9842712 L38.0082059,31.9265309 L35.8624314,31.9265309 L35.8624314,35.9842712 L30.9269501,35.9842712 L30.9269501,21.029567 L38.8661158,21.029567 C39.8260149,21.029567 40.6899241,21.1689398 41.4638428,21.4476854 C42.2357617,21.72444 42.889693,22.1087108 43.4256367,22.6004978 C43.9635801,23.0922848 44.373537,23.6796417 44.659507,24.3625685 C44.9454769,25.0474864 45.0894618,25.7881535 45.0894618,26.5845696 C45.0894618,27.3969141 44.9554759,28.0738678 44.6915036,28.6134398 C44.4275314,29.1550027 44.1295627,29.5910406 43.8015972,29.9175712 C43.431636,30.301842 43.0016812,30.6144353 42.5157323,30.8573423 L45.3034393,35.9842712 L40.0459918,35.9842712 Z" id="Fill-5" fill="#FFFFFF"></path>
                        <path d="M19.7625237,45.7122959 L22.9821854,45.7122959 C23.1681659,45.7122959 23.3501467,45.6704841 23.528128,45.5848693 C23.7081091,45.4992546 23.8680923,45.3837743 24.0120772,45.2424104 C24.1540623,45.1010465 24.2680503,44.9397723 24.3540413,44.7625697 C24.4400322,44.583376 24.4820278,44.4021914 24.4820278,44.2170246 C24.4820278,44.0318579 24.4400322,43.8506732 24.3540413,43.6734706 C24.2680503,43.494277 24.1540623,43.3349937 24.0120772,43.1916388 C23.8680923,43.050275 23.7081091,42.9347946 23.528128,42.8511709 C23.3501467,42.7635652 23.1681659,42.7217533 22.9821854,42.7217533 L19.7625237,42.7217533 L19.7625237,45.7122959 Z M25.6519051,38.8870096 C26.4458217,39.1796925 27.1217506,39.5818827 27.6816918,40.09358 C28.2376334,40.6072685 28.6675882,41.2165268 28.9675567,41.919364 C29.2675252,42.6261834 29.4175095,43.3927339 29.4175095,44.2170246 C29.4175095,45.0433063 29.2675252,45.8078658 28.9675567,46.5126941 C28.6675882,47.2175224 28.2376334,47.8267808 27.6816918,48.3384781 C27.1217506,48.8521665 26.4458217,49.2543567 25.6519051,49.5470396 C24.8579885,49.8377315 23.968082,49.9850685 22.9821855,49.9850685 L19.7625238,49.9850685 L19.7625238,53.4016937 L14.8290421,53.4016937 L14.8290421,38.4489807 L22.9821855,38.4489807 C23.968082,38.4489807 24.8579885,38.5943267 25.6519051,38.8870096 Z" id="Fill-7" fill="#FFFFFF"></path>
                        <path d="M45.0890625,38.4481842 L45.0890625,47.4218029 C45.0890625,48.3894485 44.9210801,49.2754615 44.5831157,50.0798418 C44.2491507,50.8842221 43.7732007,51.5850683 43.1592652,52.1744162 C42.5433299,52.7657552 41.7994081,53.2256855 40.9254999,53.5522161 C40.0535915,53.8807378 39.0816936,54.042012 38.0078064,54.042012 C36.935919,54.042012 35.9620213,53.8807378 35.0901129,53.5522161 C34.2182045,53.2256855 33.4742826,52.7657552 32.8603471,52.1744162 C32.2424121,51.5850683 31.7684618,50.8842221 31.4304974,50.0798418 C31.0965324,49.2754615 30.9265503,48.3894485 30.9265503,47.4218029 L30.9265503,38.4481842 L35.8620318,38.4481842 L35.8620318,47.4218029 C35.8620318,48.0629179 36.060011,48.5785974 36.4519698,48.9708323 C36.8459285,49.3610762 37.3658738,49.5561982 38.0078064,49.5561982 C38.6517388,49.5561982 39.1696843,49.3610762 39.563643,48.9708323 C39.9576016,48.5785974 40.153581,48.0629179 40.153581,47.4218029 L40.153581,38.4481842 L45.0890625,38.4481842 Z" id="Fill-9" fill="#FFFFFF"></path>
                        <polygon id="Fill-11" fill="#FFFFFF" points="56.4686685 38.4481842 61.40215 38.4481842 61.40215 53.4028885 56.0387136 53.4028885 52.391097 46.7786971 52.1771195 46.7786971 52.1771195 53.4028885 47.2416382 53.4028885 47.2416382 38.4481842 52.6050745 38.4481842 56.2746888 45.0703845 56.4686685 45.0703845"></polygon>
                        <path d="M23.6889121,66.826284 C24.0188775,66.7267319 24.3108468,66.5913412 24.5688197,66.4201117 C24.8267926,66.2488823 25.0527689,66.0457962 25.2447487,65.8108534 C25.4387284,65.5759106 25.6127101,65.3230485 25.7706935,65.052267 L30.7061752,65.6953731 C30.5481918,66.3922372 30.2482233,67.0811371 29.8042699,67.766055 C29.3603166,68.4489818 28.7963758,69.0642133 28.1104478,69.6137404 C27.4225201,70.1632675 26.6286034,70.6072695 25.7286979,70.9477374 C24.8267926,71.2921874 23.8388964,71.4614258 22.7670089,71.4614258 C21.5791337,71.4614258 20.4672504,71.2404203 19.4313592,70.8004004 C18.3934682,70.3563984 17.4835637,69.7630684 16.7056454,69.0164283 C15.9257273,68.2697882 15.3117918,67.4016946 14.8598393,66.4201117 C14.4098865,65.4385289 14.18591,64.4131431 14.18591,63.3439545 C14.18591,62.2767569 14.4098865,61.2553532 14.8598393,60.2777524 C15.3117918,59.3021427 15.9257273,58.4420132 16.7056454,57.6933821 C17.4835637,56.946742 18.3934682,56.3474388 19.4313592,55.8994548 C20.4672504,55.4514707 21.5791337,55.2264832 22.7670089,55.2264832 C23.7829022,55.2264832 24.7048054,55.3758112 25.5347183,55.6744672 C26.3646311,55.9751143 27.0945545,56.3693403 27.7244883,56.8611272 C28.3524224,57.3529142 28.8823668,57.9183696 29.3103218,58.5594846 C29.7382769,59.1986086 30.0622429,59.8695891 30.2762204,60.5684443 L25.3407387,61.2075682 C25.184755,60.9925359 25.0187725,60.7954229 24.8487903,60.6102561 C24.6768084,60.4250894 24.4828287,60.2677972 24.2688512,60.1403706 C24.0548737,60.010953 23.8068997,59.9074189 23.5289289,59.8297683 C23.2489583,59.7521178 22.9249923,59.712297 22.5530314,59.712297 C22.1230765,59.712297 21.7011209,59.811849 21.2871643,60.010953 C20.871208,60.2120481 20.5032466,60.4788475 20.1832802,60.8113512 C19.8593143,61.147837 19.6013414,61.5321078 19.4073617,61.9661546 C19.2153819,62.4002014 19.119392,62.8601317 19.119392,63.3439545 C19.119392,63.8297683 19.2153819,64.2877076 19.4073617,64.7217544 C19.6013414,65.1558011 19.8593143,65.5400719 20.1832802,65.8745667 C20.5032466,66.2110525 20.871208,66.4778519 21.2871643,66.6769559 C21.7011209,66.87606 22.1230765,66.977603 22.5530314,66.977603 C22.9809865,66.977603 23.3589468,66.925836 23.6889121,66.826284" id="Fill-13" fill="#FFFFFF"></path>
                        <polygon id="Fill-15" fill="#FFFFFF" points="36.935521 55.8677979 36.935521 61.2077681 41.2270699 61.2077681 41.2270699 55.8677979 46.1605515 55.8677979 46.1605515 70.8205109 41.2270699 70.8205109 41.2270699 65.695573 36.935521 65.695573 36.935521 70.8205109 32.0000397 70.8205109 32.0000397 55.8677979"></polygon>
                        <path d="M52.3724983,28.5949219 C54.5422703,28.5949219 56.2980858,30.3430554 56.2980858,32.5013432 C56.2980858,34.6576399 54.5422703,36.4077644 52.3724983,36.4077644 C50.2087256,36.4077644 48.4489105,34.6576399 48.4489105,32.5013432 C48.4489105,30.3430554 50.2087256,28.5949219 52.3724983,28.5949219" id="Fill-17" fill="#FFFFFF"></path>
                        <g id="Group-21" transform="translate(47.994958, 0.179791)">
                            <mask id="mask-2" fill="white">
                                <use xlink:href="#path-1"></use>
                            </mask>
                            <g id="Clip-20"></g>
                            <path d="M3.93418681,27.2748629 C4.35014312,27.2151317 4.77609839,27.1932302 5.21005281,27.2589346 C6.14795431,27.4002984 6.95986904,27.8363363 7.59180267,28.4455946 L16.1669021,16.2564459 L8.06975247,15.9737181 L12.4832889,7.3803882 L2.45234244,1.81144848 L0.116587746,21.697959 L6.37393057,21.2121452 L3.93418681,27.2748629 Z" id="Fill-19" fill="#FFFFFF" mask="url(#mask-2)"></path>
                        </g>
                    </g>
                </g>
            </g>
        </g>
    </g>
</svg>