<?xml version="1.0" encoding="UTF-8"?>
<svg width="136px" height="136px" viewBox="0 0 136 136" version="1.1" xmlns="http://www.w3.org/2000/svg" xmlns:xlink="http://www.w3.org/1999/xlink">
    <!-- Generator: sketchtool 52.6 (67491) - http://www.bohemiancoding.com/sketch -->
    <title>5861001B-05A9-4756-9DE3-EFA9B7F1E9CD</title>
    <desc>Created with sketchtool.</desc>
    <g id="Promo-Desktop" stroke="none" stroke-width="1" fill="none" fill-rule="evenodd">
        <g id="Webmaster" transform="translate(-736.000000, -910.000000)" fill="#FE5001">
            <g id="layout/section-04-copy-3" transform="translate(696.000000, 870.000000)">
                <g id="layout/icon-image" transform="translate(40.000000, 40.000000)">
                    <path d="M83.1520755,58.3569296 C82.6235192,53.4704806 82.0356352,48.0331311 82.9232399,43.9295001 C86.2032168,54.0283155 85.634595,65.4230954 84.0026967,76.2284504 C83.8817298,73.0301454 83.7630743,69.7339883 83.7669267,66.4632572 C83.7692382,64.0654917 83.4695175,61.2924974 83.1520755,58.3569296 Z M89.771357,85.7409227 C89.7158817,86.8673794 89.6904556,88.0161803 89.6650294,89.1688337 C89.5055379,96.3852451 89.3552923,103.201772 82.2336512,105.846865 C79.405952,106.897814 75.9880574,107.392468 72.4784744,107.61437 C71.1039199,107.364731 70.030627,106.912453 69.3965135,106.279881 C69.199268,106.083406 69.0521044,105.900799 68.9480882,105.725128 C71.9976885,105.16267 74.873158,103.867476 77.323317,101.895791 C81.7127998,98.3661755 84.2454011,93.0351536 84.2715978,87.2695753 C84.2769912,86.1539054 84.2662044,85.0320717 84.2461716,83.9102379 C86.8596745,70.110758 88.7543099,54.499085 83.589714,41.2112106 C83.4764519,40.9184243 83.1959935,40.7242608 82.8824039,40.7196379 C82.5688144,40.7389001 82.283733,40.9022441 82.1619956,41.1911779 C80.2396225,45.7601849 80.9731292,52.5404989 81.6195705,58.522585 C81.93316,61.4157758 82.2282577,64.1479341 82.2259463,66.4617163 C82.2220938,69.9227584 82.3538476,73.3968988 82.4809785,76.7570066 C82.5680439,79.0638544 82.6574208,81.4238659 82.7028797,83.7784841 C82.2328807,86.2502167 81.7413079,88.6649331 81.263604,90.994125 C78.7810845,91.1274198 76.2762207,91.3092555 73.6365212,91.5003371 C66.1342579,92.0435327 58.3823558,92.6036791 51.232977,91.9965328 C49.5140133,88.9723587 49.928537,82.0202254 50.2637003,76.3971877 C50.4193393,73.7798324 50.5672734,71.3080998 50.4809785,69.5359723 C50.0001926,59.66214 50.4609458,49.8615044 50.9948955,40.6418184 C56.1009342,40.4592122 61.2031205,40.7265723 66.1458153,40.985457 L68.3209092,41.0979486 C70.348069,41.2004238 72.5247038,40.9738996 74.6289126,40.7550804 C78.1200039,40.391409 81.7282096,40.0169508 84.6198594,41.1572763 C87.3543292,42.2359626 88.5054416,44.6067611 88.9299817,47.4606568 C88.9931619,48.4800154 89.0648175,49.4862756 89.1434075,50.4786671 C89.1603583,52.1174998 89.0524896,53.8148897 88.9484735,55.44987 C88.8328999,57.2828662 88.7234903,59.0141578 88.787441,60.5489743 C88.905326,63.3604931 89.0994896,66.1142252 89.2867187,68.7778099 C89.6850621,74.4524704 90.0626023,79.8127709 89.771357,85.7409227 Z M65.0170471,104.500048 C64.0154098,104.477704 63.0052971,104.372147 61.9974959,104.181065 C61.947414,103.93682 61.9258403,103.690263 61.9296928,103.441395 C61.9366272,103.446018 61.9427911,103.451411 61.9497255,103.455263 C62.7602812,104.022344 63.8528364,104.365983 65.0170471,104.500048 Z M63.0715593,102.344987 C62.8357893,101.006645 63.5962631,99.8670904 64.5069826,99.3030916 C65.3776365,98.7637484 66.7113551,98.5480112 67.8439757,99.5627468 C69.1368583,100.722335 68.7493017,101.403448 68.0458442,102.640085 C68.0088606,102.705576 67.9718771,102.771839 67.9333526,102.838871 C66.3430608,103.170953 64.3336223,103.070789 63.0715593,102.344987 Z M70.1962824,100.516614 C70.4274295,101.004334 70.4058557,101.425022 70.1292497,101.774824 C70.2348069,101.378022 70.2748724,100.958105 70.1962824,100.516614 Z M62.3696427,107.748435 C61.1746123,107.733796 60.0265819,107.719927 58.9463546,107.719927 C58.3145526,107.717615 57.6919965,107.729943 57.0524896,107.741501 C53.5205625,107.809304 49.8707503,107.875566 47.2749687,105.726669 C44.7855148,103.666378 44.6922855,101.191563 44.5744005,98.0595204 C44.5404989,97.1557353 44.5058268,96.2219012 44.4072041,95.251854 C43.6559761,87.8705576 42.8885679,79.2310508 42.8885679,71.1154772 C42.8885679,66.8885679 43.0434364,62.4474622 43.193682,58.1519792 C43.3408456,53.9366272 43.4934027,49.577964 43.5018781,45.3772513 C43.5219108,36.0127131 45.5367428,30.4936916 55.7796398,29.9944139 C57.4084561,29.9150535 59.0796494,29.8048734 60.7731869,29.6939228 C67.2491573,29.2670712 73.9462583,28.8263508 79.8173938,29.9828566 C87.5777714,31.5115092 88.2974092,35.4225176 88.6649331,42.3854377 C87.8497544,41.2520466 86.7248387,40.3313108 85.1853992,39.7241645 C81.9454878,38.4459212 78.1462005,38.8404122 74.4701917,39.2225754 C72.3297698,39.445247 70.3064625,39.6563614 68.3987287,39.5592796 L66.2267167,39.446788 C61.0243668,39.1740345 55.643263,38.8928055 50.2328807,39.1301165 C49.8376192,39.1478378 49.5201772,39.4606568 49.4970625,39.8551478 C48.9438505,49.3183088 48.4453433,59.4117307 48.9415391,69.6114803 C49.0239815,71.2996244 48.8783589,73.7312915 48.7250313,76.3054994 C48.3451796,82.6720601 47.9152461,89.889242 50.1458153,93.1638255 C50.2752576,93.3541366 50.48329,93.4766445 50.7128961,93.4974478 C58.0911105,94.1700857 66.051045,93.5945295 73.7474718,93.0366946 C76.5859578,92.8317442 79.2672638,92.6375807 81.9246846,92.5027449 C80.9199653,95.7133776 79.0083791,98.563421 76.3578927,100.695367 C74.2297987,102.407397 71.7511317,103.563903 69.1160551,104.120967 C70.029086,103.821246 70.8026582,103.372821 71.2919195,102.787248 C71.7904267,102.190118 72.7019166,100.559761 70.4258885,98.3029953 C68.6106135,96.5039006 66.1435038,96.2997207 63.8258692,97.7574882 C61.5521526,99.1882885 59.6675335,102.246364 60.653761,105.094867 C60.7415968,105.349899 60.9565636,105.54021 61.2200713,105.596456 C63.2741982,106.037176 65.342194,106.149668 67.3547144,105.950881 C67.5172879,106.406241 67.8162381,106.880863 68.3085813,107.370895 C68.4457286,107.507272 68.5952037,107.637484 68.7570066,107.759992 C66.5541751,107.800828 64.3837041,107.773861 62.3696427,107.748435 Z M68.0003852,0 C30.505249,0 0,30.5044785 0,67.9996148 C0,105.494751 30.505249,135.99923 68.0003852,135.99923 C80.5131465,135.99923 92.88799,132.241549 105.831455,124.51122 C110.352692,121.810652 113.271309,117.413464 113.836078,112.446114 C114.298372,108.386401 113.394587,102.151594 106.466339,95.4999518 C97.812193,87.1917558 92.3910238,71.6232303 90.6774535,50.288356 C90.6612732,49.3052104 90.601175,48.3320813 90.4701917,47.3920832 C90.4162573,46.5476259 90.3692574,45.6954637 90.3268805,44.8332852 L90.283733,43.9248772 C89.9092748,36.0427622 89.6396032,30.3472985 80.114803,28.4711548 C74.0471925,27.2745835 67.2476163,27.7222383 60.6714822,28.1560243 C58.9871906,28.2662044 57.3244727,28.3763845 55.7041318,28.4549745 C44.3270731,29.0097274 41.9817009,35.6197631 41.9608976,45.3741693 C41.9524222,49.5494558 41.8006357,53.8950207 41.653472,58.0980449 C41.5032264,62.4066262 41.3475874,66.8623712 41.3475874,71.1154772 C41.3475874,79.2996244 42.1188481,87.9884426 42.8739285,95.4082635 C42.9671579,96.3282288 43.0018299,97.2381778 43.034961,98.1173071 C43.1566984,101.354907 43.2715015,104.413753 46.2925937,106.913994 C49.3283251,109.426563 53.4473659,109.348743 57.0809978,109.282481 C57.651931,109.271694 58.2167004,109.261678 58.7714533,109.260907 C59.899451,109.260907 61.0975633,109.274006 62.3503804,109.289415 C65.4808822,109.32794 68.9819898,109.372628 72.4276221,109.161514 C74.0726187,109.436579 76.0296639,109.457382 78.1677742,109.200039 C81.8345372,108.758548 86.660888,107.348551 88.1972455,104.827507 C88.4183762,104.464606 88.3028027,103.989984 87.9399018,103.768853 C87.9283444,103.761919 87.9175575,103.755755 87.9067707,103.749591 C90.9671579,99.9834345 91.0881248,94.5283637 91.2060098,89.2027352 C91.2306655,88.0647212 91.2553212,86.9297891 91.3107965,85.8156602 C91.6058943,79.7965906 91.2260426,74.3916017 90.8238467,68.6691708 C90.6504864,66.2174709 90.4732736,63.6879515 90.3546181,61.1168256 C92.847154,77.4935953 97.8853896,89.3976693 105.39921,96.6117692 C111.872099,102.826543 112.727343,108.55822 112.305114,112.271983 C111.79505,116.757777 109.146875,120.736589 105.041703,123.188289 C92.3432534,130.772224 80.2272946,134.458249 68.0003852,134.458249 C31.3543292,134.458249 1.54098045,104.6449 1.54098045,67.9996148 C1.54098045,31.3543292 31.3543292,1.54098045 68.0003852,1.54098045 C104.645671,1.54098045 134.45902,31.3543292 134.45902,67.9996148 C134.45902,72.2881633 134.048348,76.575171 133.239334,80.7427526 C133.157662,81.1603583 133.431186,81.5648656 133.848791,81.6457671 C134.267938,81.7289801 134.670134,81.4539151 134.751035,81.0363094 C135.580083,76.7731869 136,72.3867861 136,67.9996148 C136,30.5044785 105.495522,0 68.0003852,0 Z" id="Fill-2"></path>
                </g>
            </g>
        </g>
    </g>
</svg>