<?xml version="1.0" encoding="UTF-8"?>
<svg width="136px" height="136px" viewBox="0 0 136 136" version="1.1" xmlns="http://www.w3.org/2000/svg" xmlns:xlink="http://www.w3.org/1999/xlink">
    <!-- Generator: sketchtool 52.6 (67491) - http://www.bohemiancoding.com/sketch -->
    <title>0D015454-5D98-4B1B-B428-D1B1F44DDF8F</title>
    <desc>Created with sketchtool.</desc>
    <g id="Promo-Desktop" stroke="none" stroke-width="1" fill="none" fill-rule="evenodd">
        <g id="Homepage" transform="translate(-415.000000, -1075.000000)" fill="#FE5001">
            <g id="layout/section-04-copy" transform="translate(383.000000, 1028.000000)">
                <g id="layout/icon-image" transform="translate(32.000000, 47.000000)">
                    <path d="M68.767023,87.919869 C67.6089762,89.7074063 66.5919291,91.7476645 65.6080131,93.7216604 C64.0446884,96.8598671 62.4320524,100.095156 60.1691226,102.546085 C58.2960609,99.2013869 58.4070115,94.4759703 58.5233555,89.4955215 C58.6658962,83.3893865 58.8130598,77.0744486 55.0600019,73.027834 C54.112299,72.0061639 52.9172686,71.3342964 51.5396321,70.9051334 C52.4079746,71.013002 53.2747761,71.1409034 54.1377251,71.2934605 C59.4302225,72.232688 59.6251565,77.9435616 59.8308774,83.9895984 C59.9541558,87.608591 60.0820572,91.3516325 61.3849562,94.1153809 C61.4912838,94.3403641 61.6993162,94.4998555 61.9435616,94.544544 C62.1885775,94.5884619 62.4397573,94.5121834 62.618511,94.3388231 C68.7878263,88.3405567 73.497833,79.1794279 76.9111047,71.8690167 C79.2117885,66.9448136 81.7089473,61.8025619 84.3848599,56.476163 C83.6097467,58.761437 82.7398632,61.087547 81.7852258,63.4313782 C80.8390639,65.4007512 79.8867379,67.3631898 78.9305596,69.2978908 C78.030627,71.1193297 77.3525956,72.7111625 76.88799,74.126553 C74.7375518,78.3118559 72.1810652,82.6504864 68.767023,87.919869 Z M81.2358663,50.5641915 C79.5900992,53.8218241 78.2170856,57.5656361 77.0397766,60.771646 C76.454204,62.3681017 75.9487624,63.7457382 75.5034191,64.7951459 C73.1434075,70.3580853 70.4898392,75.3362227 67.6814023,80.6063758 C67.2167967,81.4785707 66.7498796,82.3546181 66.2814216,83.2375999 C64.866031,80.8198016 64.1957045,77.6654146 63.5454108,74.601175 C63.2703458,73.3121449 63.011461,72.0939998 62.6994125,70.9267071 C62.4328229,69.9296928 62.1462005,69.2246942 61.9373977,68.7100067 C61.4550708,67.5211403 61.3934316,67.3685833 62.5769046,65.6596359 C63.4722142,64.3667533 65.7258981,62.9413464 67.7145334,61.6839064 C69.1283829,60.7893672 70.464413,59.9449099 71.4167389,59.116633 L73.8977174,56.9669652 C76.3409419,54.8519696 78.8142155,52.7100067 81.2358663,50.5641915 Z M44.0304344,68.7454493 C38.6786093,68.4241549 33.6018492,68.1182702 28.7469903,66.3384378 C29.9327747,65.3760955 31.4521815,64.5709333 32.0323606,64.2627372 C32.2773765,64.1340653 32.4237696,63.8905904 32.4407204,63.6340171 C33.5625542,63.13551 34.7098141,62.6678224 35.7892709,62.228643 C37.6184147,61.4828084 39.3458538,60.7793509 40.5162285,60.097467 L41.6896851,59.4140422 C47.2033131,56.199557 52.9033998,52.8748916 58.7575845,50.0310122 C67.1035346,45.9736107 76.8124819,41.3791775 86.423577,38.1947414 C90.8893383,36.7146297 92.2022537,37.2362516 92.5867283,37.678513 C92.5928922,37.6854474 92.5998266,37.6931523 92.6052201,37.7008572 C92.5081383,37.7416932 92.4187614,37.8025619 92.3432534,37.8826929 C90.6019455,39.7303284 88.7011461,41.6087836 86.698642,43.5011076 C85.8041029,44.0697294 84.965039,44.8741212 84.1768275,45.8472503 C80.548589,49.1703747 76.6830396,52.5166137 72.8883752,55.801984 L70.4073967,57.9531927 C69.5421362,58.7051912 68.2538765,59.5188289 66.8901088,60.3810074 C64.6749494,61.7825291 62.384282,63.2318212 61.3094481,64.7820476 C59.7314842,67.0596167 59.8724839,67.7191563 60.5096793,69.2894154 C60.7146297,69.793316 60.9688915,70.420495 61.2108254,71.3258211 C61.5128576,72.4530483 61.7678898,73.6527015 62.0375614,74.9216989 C62.82115,78.6123471 63.6324762,82.4278147 65.7459308,85.2077434 C65.9046518,85.4180873 66.1542907,85.5359723 66.4231918,85.5090051 C66.6851584,85.4874314 66.9178465,85.3333333 67.0411249,85.0998748 C67.7106809,83.8285659 68.3779255,82.5757488 69.0413175,81.3314071 C71.8659347,76.0296639 74.5349128,71.0230184 76.922662,65.3968988 C77.3826447,64.312819 77.8950207,62.9174612 78.4867572,61.3025137 C80.1594915,56.7435231 82.447077,50.5087162 85.2716941,46.9336415 C86.0622171,46.2093807 86.8419532,45.4843494 87.6078205,44.7624001 C87.369739,45.9389386 87.096215,47.1439854 86.7895599,48.3713763 C82.6481749,56.3775402 78.8727728,64.0285081 75.5149764,71.2171819 C72.3112781,78.0768564 67.9580083,86.5830685 62.3642493,92.4087451 C61.5791197,90.0263893 61.4735626,86.937494 61.3710874,83.937205 C61.1530386,77.5444477 60.927285,70.934412 54.4066262,69.7771357 C50.9278629,69.1592025 47.4213618,68.9496292 44.0304344,68.7454493 Z M40.2334585,70.4751998 C34.6535683,70.8411827 28.8926129,71.2179524 25.7174227,68.41645 C25.930078,67.9472214 26.2706347,67.4964846 26.7075026,67.0626986 C26.7891746,67.1759607 26.9016662,67.2653376 27.0341905,67.3208129 C32.4060483,69.5683329 38.1670038,69.9366272 43.746894,70.2717904 C42.6004045,70.3203313 41.4230954,70.3966098 40.2334585,70.4751998 Z M89.3260137,43.1204854 C89.4654724,42.9856496 89.6049311,42.8500433 89.7428489,42.715978 C89.6295868,42.9309448 89.5163248,43.1459116 89.4022922,43.3616488 C89.3899644,43.2776654 89.3645382,43.1967639 89.3260137,43.1204854 Z M89.928537,46.3796591 C89.5741115,47.091592 89.222768,47.7996725 88.8929982,48.4884908 C88.4892613,49.3344891 88.0839834,50.1851103 87.6787056,51.038043 C87.8759511,50.32611 88.0631802,49.6203409 88.238852,48.9215063 C89.5533083,46.3812 90.9047481,43.8054512 92.2908601,41.1958008 C91.701435,42.8115188 90.7637484,44.6992199 89.928537,46.3796591 Z M67.9996148,0 C30.5044785,0 0,30.5044785 0,67.9996148 C0,105.494751 30.5044785,136 67.9996148,136 C80.5131465,136 92.8887605,132.242319 105.830685,124.51122 C111.458345,121.150342 114.908601,114.71983 114.416257,108.508138 C113.832226,101.136088 107.987287,94.8681499 97.9570452,90.8585187 C97.5240297,90.6851584 96.9407686,90.4293557 96.3166715,90.1558316 C95.2133295,89.6711933 93.9628238,89.1226043 93.2131369,88.8829818 L85.4073004,85.5598575 C81.301358,84.2430897 78.9775595,82.6551093 78.0899547,80.5632284 C77.4589232,79.0723298 77.5174805,77.2154483 78.3288067,74.6944043 C78.6177405,74.129635 78.89974,73.5679476 79.1755755,73.0062602 C80.6371954,70.030627 81.9809304,67.03342 83.1929115,64.0624097 C84.5505153,61.2362516 85.8942502,58.3993066 87.2117885,55.6186073 C88.2396225,53.4481364 89.2628335,51.2884523 90.283733,49.1534239 C90.6096504,48.47154 90.957912,47.7703939 91.308485,47.0653954 C93.4558413,42.7460272 95.4837715,38.6655109 93.750939,36.6684003 C92.5890398,35.3300587 90.1072908,35.349321 85.9389386,36.7315805 C76.2384667,39.9460657 66.4740441,44.5666956 58.0834056,48.6449003 C52.1783685,51.5149764 46.4513146,54.8535105 40.9138014,58.0818646 L39.7411153,58.7660599 C38.6647404,59.3932389 36.9858422,60.0774343 35.2075508,60.8009246 C30.4536261,62.737937 25.0648175,64.9338342 24.080131,68.4172205 C24.0046229,68.6830396 24.077049,68.9688915 24.2704421,69.166137 C27.8532216,72.8290475 34.1989791,72.4129828 40.3336223,72.0123278 C46.0005779,71.644804 51.34778,71.2934605 53.9296928,74.0757007 C57.25744,77.6638736 57.1179813,83.6598286 56.982375,89.4593085 C56.8567851,94.858904 56.7265723,100.443417 59.4086488,104.225754 C59.5380911,104.40836 59.7415005,104.525474 59.9641722,104.547048 C60.1868439,104.568622 60.4087451,104.491573 60.570548,104.335934 C63.3843783,101.639218 65.2158336,97.9639796 66.9871906,94.4089377 C67.9965328,92.3848599 68.9488587,90.4717326 70.0599056,88.7581624 C72.4445729,85.0759896 74.4162573,81.8430126 76.1259752,78.7972648 C76.1768275,79.6501974 76.3602042,80.4299335 76.6722527,81.1642107 C77.7463161,83.6998941 80.3721468,85.5629394 84.8694982,87.0022152 L92.6737937,90.324569 C93.4134643,90.5641915 94.6262159,91.0973707 95.6971973,91.5665992 C96.3397862,91.8485987 96.9399981,92.1113358 97.3845709,92.2893191 C106.842338,96.0701146 112.34518,101.873447 112.88067,108.629876 C113.326784,114.270635 110.17625,120.121737 105.040932,123.188289 C92.3432534,130.772224 80.2272946,134.45902 67.9996148,134.45902 C31.3535587,134.45902 1.54098045,104.645671 1.54098045,67.9996148 C1.54098045,31.3543292 31.3535587,1.54098045 67.9996148,1.54098045 C104.6449,1.54098045 134.45902,31.3543292 134.45902,67.9996148 C134.45902,72.2866224 134.047578,76.57363 133.238563,80.7427526 C133.156891,81.1603583 133.430415,81.5648656 133.848021,81.6457671 C134.264856,81.7274391 134.669363,81.4539151 134.751035,81.0363094 C135.580083,76.7708755 136,72.3844746 136,67.9996148 C136,30.5044785 105.494751,0 67.9996148,0 Z" id="Fill-10"></path>
                </g>
            </g>
        </g>
    </g>
</svg>