<?xml version="1.0" encoding="UTF-8"?>
<svg width="136px" height="136px" viewBox="0 0 136 136" version="1.1" xmlns="http://www.w3.org/2000/svg" xmlns:xlink="http://www.w3.org/1999/xlink">
    <!-- Generator: sketchtool 52.6 (67491) - http://www.bohemiancoding.com/sketch -->
    <title>37709150-6A9B-4848-914C-DD99283EA416</title>
    <desc>Created with sketchtool.</desc>
    <g id="Promo-Desktop" stroke="none" stroke-width="1" fill="none" fill-rule="evenodd">
        <g id="Homepage" transform="translate(-1039.000000, -1075.000000)" fill="#FE5001">
            <g id="layout/section-04-copy-3" transform="translate(1007.000000, 1028.000000)">
                <g id="layout/icon-image" transform="translate(32.000000, 47.000000)">
                    <path d="M91.7982664,93.2991898 C91.6279871,92.6057447 91.503167,91.7674466 91.4083961,90.7496233 C91.3105433,89.7025211 91.2889695,88.6515665 91.2697071,87.6360546 C91.2065265,84.3930429 91.1471985,81.3310974 88.7478783,78.5943006 C86.8285763,76.406096 83.4291542,74.8458444 80.4303892,73.4674296 C79.6675996,73.1176251 78.9340887,72.7809189 78.2753158,72.4549997 C82.7672993,67.6810152 80.749374,62.9678998 78.7946292,58.4027194 C77.9532491,56.4387287 77.0833607,54.4077049 76.6749986,52.3150416 C76.1510623,49.634491 76.4153419,46.8160218 77.3068041,44.4413574 C77.3152796,44.435964 77.322214,44.431341 77.3306895,44.4259475 C78.683678,43.5907314 79.4557136,42.6384001 80.0759617,41.8740695 C81.166982,40.5272449 81.8272959,39.7143731 85.0202255,40.1073254 C87.5905954,40.4232281 90.9676732,41.5581667 92.4647442,45.1756388 C94.3732593,49.7909014 91.9038241,53.4284063 89.2903065,57.2785678 C87.5528412,59.8366098 85.7568183,62.4817177 85.3353578,65.4512039 C84.4076823,71.9934735 89.6593734,74.7372047 94.2931279,77.1573282 C96.2956433,78.2036598 98.1872075,79.1914339 99.6280324,80.4303892 C102.11673,82.5708232 105.272676,87.1691349 103.14457,90.3967367 C101.743811,92.5225313 97.7372387,92.7374993 94.5173418,92.9108606 C93.7260439,92.9532378 92.9701887,92.994074 92.2875305,93.058025 C92.0956773,93.0765169 91.923857,93.1651238 91.7982664,93.2991898 Z M87.931154,39.0663872 C90.7796725,39.9871282 92.8453685,41.6891508 94.0689139,44.1239137 C95.6068211,47.1835477 95.7116084,51.2324967 94.3555379,55.2321342 C93.8616509,56.6914509 92.9139426,58.3765226 91.9962835,60.0053481 C90.8736729,62.0009291 89.713308,64.0635431 89.2764376,65.8849924 C88.0860235,70.8531415 91.7289219,72.910362 94.9434253,74.7248768 C96.3981191,75.546224 97.8558949,76.1125375 99.2658999,76.6595887 C101.911008,77.686658 104.408951,78.6574812 106.329794,81.1808509 C109.135936,84.868438 109.004181,91.1063622 107.67816,95.5682964 C104.340377,95.7786414 99.2058014,95.4989519 95.55828,94.3963741 C98.9261118,94.196816 102.763945,93.7753555 104.431296,91.2458218 C107.121863,87.1637414 103.633834,81.8427058 100.632757,79.2623194 C99.0570959,77.9070194 96.9983344,76.8321795 95.0073764,75.7912413 C90.4198516,73.3957736 86.0858195,71.1320605 86.8609371,65.6677129 C87.2323154,63.0518837 88.8511246,60.6679735 90.5647045,58.1438332 C93.2937964,54.1249334 96.1153476,49.9696561 93.8878477,44.5862104 C92.4786131,41.1798538 89.4775367,39.1018299 85.2082262,38.5778936 C85.0980454,38.5640247 84.9909467,38.5524673 84.8853889,38.5416804 C85.8500482,38.5486148 86.8694125,38.7227466 87.931154,39.0663872 Z M65.64768,44.283406 C65.2655147,48.0534361 63.299983,51.5884652 61.3984024,55.0079202 C59.3642966,58.66854 57.2600759,62.4539799 57.0790097,66.5614866 C56.7145657,74.8365985 63.9179197,77.5549034 70.272959,79.9526826 C71.4887995,80.4111268 72.6368364,80.8449153 73.7201518,81.3095235 C74.2487111,81.5368194 74.7872868,81.7540989 75.3274035,81.9721489 C78.3038241,83.1725795 81.1145884,84.307518 82.5500198,87.1090363 C83.3621211,88.6962552 83.164104,90.3905728 82.9545295,92.1850547 C82.7827092,93.6551583 82.6070364,95.1660982 83.0053821,96.6485298 C78.473333,97.2795649 72.8910997,97.1585972 67.4829981,97.0437936 C64.0542972,96.9690556 60.5053991,96.8935471 57.325568,97.0168262 C54.9794119,97.1077446 52.5176817,97.2772534 49.9110985,97.4560082 C42.9435159,97.9367968 35.746326,98.4314543 29.698714,97.5137953 C29.5307461,96.7340547 29.4051555,95.8541499 29.3250241,94.91954 C35.3541442,95.5890998 42.1314147,94.9888845 48.6852416,94.4071611 C53.1024871,94.0149793 57.669979,93.6104697 61.8984533,93.6104697 C62.9948671,93.6104697 64.4518724,93.7946179 65.9944026,93.9903235 C69.5317432,94.4387513 73.5406266,94.9449663 75.89834,93.6351255 C77.6542972,92.6596793 78.6143335,91.3922157 78.752252,89.8697184 C79.0018922,87.1044133 76.4430797,84.5579287 74.8951561,83.2866127 C72.4426718,81.2709988 69.4878251,80.0274205 66.6308311,78.825449 C62.3561271,77.0263441 58.3187355,75.3274035 55.8731857,71.2576511 C52.6702396,65.9319925 55.8030706,59.9883973 58.8318849,54.2397371 C59.6632485,52.6640757 60.4468415,51.1754801 61.087893,49.7192454 C64.1221007,42.8256303 63.1027364,37.1740525 57.6222084,31.2435556 C59.2733783,31.8106396 60.6648915,32.5279701 61.8052235,33.4047929 C62.8523256,34.5952071 63.6875418,36.3958529 64.5720696,38.3005156 C64.9288086,39.0710101 65.2894,39.8476687 65.6707949,40.5973599 C65.7917625,41.7307575 65.7825166,42.9581553 65.64768,44.283406 Z M30.3890771,85.6312277 C30.3806017,85.1935868 30.3721262,84.806028 30.3690442,84.4893547 C30.4907824,84.161124 30.622537,83.8536967 30.7650785,83.5693842 C32.1126735,80.8726531 34.8032406,79.5196646 37.6525296,78.0873152 C39.2289615,77.2937057 40.8585576,76.47467 42.2862841,75.398289 C48.9317999,70.3854512 46.9485468,66.1330916 44.650932,61.2096312 C44.0129624,59.8404623 43.3534191,58.4250637 42.7901875,56.8578777 C40.3153589,49.9634922 38.3783355,40.443261 43.2024021,34.2369271 C45.4291315,31.3737692 48.8116027,29.6501728 52.480698,29.5084018 C53.0801428,29.485287 53.6703416,29.5053198 54.2543765,29.5669594 C54.1981304,29.8289275 54.2813438,30.1070761 54.4855249,30.2950768 C61.2897626,36.5692142 62.7937681,42.0173815 59.6778879,49.0982267 C59.0584103,50.5051498 58.2863747,51.9706306 57.46888,53.5216362 C54.3915246,59.3619852 50.9027251,65.9820747 54.5517874,72.0528015 C57.2569939,76.5524899 61.7189281,78.4301853 66.0329273,80.2454705 C68.788216,81.4050649 71.6382755,82.6047249 73.9173984,84.4770268 C76.117931,86.2846071 77.3514928,88.2485978 77.2174268,89.7302589 C77.1288199,90.714951 76.4322928,91.5755935 75.1501898,92.2883009 C73.2316583,93.353895 69.3260212,92.8584669 66.1885672,92.4616622 C64.5959549,92.2597926 63.0919495,92.0694805 61.8984533,92.0694805 C57.601405,92.0694805 53.0000113,92.4770721 48.5504051,92.8723358 C42.297071,93.4270919 35.8426378,94.0003399 30.1140105,93.4525183 C30.5069628,91.1587559 30.4368478,87.8864654 30.3890771,85.6312277 Z M68,0 C30.5046513,0 0,30.5046513 0,68 C0,105.496119 30.5046513,136.00077 68,136.00077 C80.5128321,136.00077 92.8885162,132.242298 105.831284,124.511155 C112.02529,120.812781 116.753045,112.334259 113.31741,103.906589 C113.28736,103.833392 113.245754,103.764047 113.194131,103.702408 L110.415727,100.396986 C108.13044,97.8921081 104.529148,97.55232 101.045742,97.2248598 C100.640462,97.1871055 100.234412,97.1493513 99.8291315,97.1069741 C99.2466376,97.047646 98.6972749,96.9975639 98.1802731,96.9513342 C94.9341794,96.6585463 93.2213699,96.5044473 92.2898419,94.6883916 C96.1130361,96.9228259 103.874228,97.4328933 108.320752,97.0669084 C108.629721,97.0414821 108.89323,96.8334485 108.989542,96.5383491 C110.628384,91.5208883 110.820237,84.5386664 107.556422,80.247782 C105.37207,77.3784601 102.552059,76.2828168 99.8245085,75.2233868 C98.4645856,74.695598 97.0592034,74.1500878 95.700051,73.3826752 C92.0764149,71.3370121 89.9005382,69.8977282 90.7750496,66.2432723 C91.1610674,64.6321681 92.2690386,62.664325 93.3400261,60.7612033 C94.2915869,59.0699677 95.274738,57.3217155 95.8148547,55.7267917 C97.3019092,51.338825 97.1670727,46.856858 95.4457878,43.4320095 C94.0296187,40.6143108 91.6611184,38.6526316 88.4050082,37.600136 C83.7812702,36.106147 80.7208657,37.6455952 78.9664495,39.2004532 C77.7575435,40.2729817 76.7805563,41.7199705 76.0855702,43.3749929 C74.130055,44.499915 72.5189508,44.8497196 71.1721262,44.4459804 C69.4623987,43.9336015 68.2403943,42.1953657 67.1748003,40.1489321 C66.7633562,36.8003626 65.3209903,34.171435 62.8238173,32.2344116 C60.1879554,29.3681718 56.392499,27.8079202 52.4213699,27.9681831 C48.2961419,28.1276755 44.4922101,30.0677809 41.9865617,33.2915302 C37.7681038,38.7173531 37.5500538,46.8214152 41.3393462,57.3787321 C41.9264631,59.0121806 42.6014164,60.4607104 43.2547958,61.8606991 C45.5955583,66.8781599 47.0078749,69.9062036 41.3578381,74.1678092 C40.0418333,75.1602062 38.4754178,75.9476517 36.9606255,76.7096708 C34.0119427,78.1921024 30.9630956,79.7253867 29.3866636,82.8797915 C29.2441221,83.1648745 29.1108266,83.4692199 28.986777,83.7889751 C28.8927766,83.9107133 28.8349895,84.0609597 28.8272846,84.2250751 C27.4126565,88.3094669 27.3702793,94.625211 28.3187581,98.3821427 C28.3942666,98.6787831 28.6369724,98.902997 28.9397768,98.9538496 C35.2670784,100.010968 42.7647612,99.4931959 50.0174268,98.9939154 C52.6116821,98.8151606 55.0626253,98.6464223 57.3856665,98.5562744 C60.5200385,98.4360773 64.0435103,98.5108153 67.4498669,98.5840122 C73.2994618,98.7103733 79.3447623,98.8398164 84.1719109,98.0284856 C84.4084528,97.9891904 84.6118634,97.8412555 84.7243556,97.6301399 C84.8368478,97.4182539 84.8445527,97.1670727 84.7451589,96.9490227 C84.1125829,95.5605915 84.2936491,94.0080449 84.4855022,92.3645799 C84.7120276,90.4198516 84.9470285,88.4104017 83.9207297,86.4055748 C82.2248711,83.093989 79.0111382,81.7964761 75.9037335,80.5428814 C75.3744037,80.3294544 74.8473854,80.1160274 74.3280721,79.8933545 C73.2131664,79.4148773 72.0497196,78.9764659 70.8169282,78.5110872 C64.6652994,76.189587 58.3033256,73.7887259 58.6184579,66.6285196 C58.7833437,62.8846864 60.7080392,59.4220837 62.7459974,55.756841 C64.722316,52.2010084 66.7664382,48.5242083 67.1809643,44.4398164 C67.2218005,44.0407002 67.2510793,43.6500595 67.2711121,43.2663532 C68.2003286,44.5199479 69.3044473,45.4946235 70.7290918,45.922248 C72.1213756,46.3383151 73.6585123,46.1857572 75.3898136,45.4476234 C74.8026967,47.7190414 74.6948275,50.2192964 75.1625177,52.6109116 C75.6024701,54.8638377 76.5047193,56.9711404 77.3776896,59.0090986 C79.3948445,63.7191321 81.1369328,67.786573 76.4577191,72.0843918 C76.2751119,72.2515891 76.184964,72.4973769 76.2142428,72.7439352 C76.2442921,72.989723 76.3906861,73.2077729 76.608736,73.3264291 C77.5140672,73.8241686 78.6181859,74.3319245 79.7870262,74.8681888 C82.6463317,76.1811116 85.8870319,77.6697071 87.5890544,79.6098125 C89.6169962,81.9236077 89.6693898,84.5841255 89.7294884,87.6653334 C89.7495213,88.7101241 89.7703246,89.7888165 89.8735709,90.8929352 C90.5200159,97.8081242 93.1913206,98.049289 98.041584,98.4861594 C98.552422,98.5323891 99.0956206,98.5809303 99.6711801,98.6402583 C100.081083,98.6826355 100.491757,98.7211603 100.90166,98.759685 C104.240213,99.0732763 107.393077,99.3699167 109.256903,101.411727 L111.935142,104.600034 C114.960104,112.194029 110.656121,119.835024 105.041527,123.188986 C92.3437766,130.772194 80.2269786,134.459781 68,134.459781 C31.3537363,134.459781 1.54098918,104.645493 1.54098918,68 C1.54098918,31.3545068 31.3537363,1.54098918 68,1.54098918 C104.645493,1.54098918 134.459011,31.3545068 134.459011,68 C134.459011,72.2847204 134.049108,76.5725228 133.239318,80.74321 C133.157645,81.1608181 133.431171,81.5645572 133.848779,81.6462297 C134.266387,81.7309841 134.670126,81.4543765 134.751799,81.0367685 C135.58008,76.7697694 136,72.3833437 136,68 C136,30.5046513 105.495349,0 68,0 Z" id="Fill-6"></path>
                </g>
            </g>
        </g>
    </g>
</svg>