<?xml version="1.0" encoding="UTF-8"?>
<svg width="136px" height="136px" viewBox="0 0 136 136" version="1.1" xmlns="http://www.w3.org/2000/svg" xmlns:xlink="http://www.w3.org/1999/xlink">
    <!-- Generator: sketchtool 52.6 (67491) - http://www.bohemiancoding.com/sketch -->
    <title>D15E97AA-33CE-4370-AEA4-B90B495A7AB6</title>
    <desc>Created with sketchtool.</desc>
    <g id="Promo-Desktop" stroke="none" stroke-width="1" fill="none" fill-rule="evenodd">
        <g id="Homepage" transform="translate(-727.000000, -1075.000000)" fill="#FE5001">
            <g id="layout/section-04-copy-2" transform="translate(695.000000, 1028.000000)">
                <g id="layout/icon-image" transform="translate(32.000000, 47.000000)">
                    <path d="M90.9633054,93.5267264 C88.2804584,98.56188 82.2405856,99.1305018 77.9196764,97.106424 C74.4647982,95.489165 71.5246075,91.9117789 73.6342098,86.7240682 C73.771357,86.3881345 73.6557835,86.0028893 73.3568333,85.7987094 C67.820861,81.9963402 63.4521815,79.3219686 59.192141,77.126842 C57.2428007,76.1213522 55.5508042,75.2098623 53.5421362,74.1203891 C51.6282385,73.0833093 50.8284696,72.7265723 49.9832418,72.7265723 C49.5741115,72.7265723 49.1541944,72.8097852 48.592507,72.9392276 C48.1070981,73.0524896 47.5030338,73.1919484 46.6177405,73.3190793 L45.6646441,73.4608495 C41.4385052,74.091881 36.649138,74.8092074 33.260522,71.486083 C31.8150823,70.0676105 31.0014447,68.2515651 30.9228547,66.3060772 C32.2165078,68.5320235 34.4925359,70.4466917 36.8463835,71.0037561 C43.1566984,72.4992777 46.0198401,69.2208418 49.0494077,65.7505538 C49.3445054,65.4138496 49.6434556,65.0702109 49.9516517,64.7258018 C53.3055957,60.96658 57.8245209,58.9263219 62.6084947,56.7658673 C67.03342,54.7679861 71.5985746,52.7061543 75.1019936,49.1595878 C76.8278917,51.7199268 79.1093133,52.2099586 80.8036213,52.1529423 C84.9812193,51.9919099 89.7097178,48.2041799 91.8008283,43.3431571 C92.4395647,41.8591929 92.7762689,40.4099008 92.8155639,39.0299528 C93.9836271,41.7490128 93.6168737,44.1460079 92.9373014,45.8873158 C91.2753539,50.1419628 86.3049215,53.7224309 81.6218819,54.0360204 C78.6493306,54.2409708 76.3054994,53.0698257 75.0203217,50.7537321 C74.8955023,50.5287489 74.6666667,50.3815853 74.4100934,50.3600116 C74.1527497,50.3376673 73.9038813,50.447077 73.7436194,50.6489454 C70.660888,54.5245112 65.5409804,56.7080805 60.5898103,58.8199942 C56.9215063,60.3848599 53.4558413,61.8626601 50.7429452,63.9861312 C50.4701917,64.1987865 50.3731099,64.5693923 50.5064047,64.8891457 C50.7491091,65.4700953 50.9363382,65.9863238 51.1073871,66.4532409 C51.7584513,68.2400077 52.2292208,69.5298083 54.4089377,70.819609 C55.4999518,71.4652798 56.8822113,71.8027545 58.3453722,72.1594915 C59.6513532,72.4777039 61.002793,72.8059328 62.0344794,73.3591448 C66.1304055,75.5565829 69.2131369,78.7687566 72.5277858,82.2205528 C72.7589329,82.4617163 73.1187518,82.5264374 73.4200135,82.3800443 L74.2737167,81.9632091 C78.7595107,79.7665415 82.9948955,77.6908408 87.1393624,80.8621786 C90.6913224,83.5812386 93.1345469,89.4508331 90.9633054,93.5267264 Z M82.4008475,102.195512 C78.8704613,102.944428 75.6960416,102.039102 73.458538,99.6467302 C70.8057402,96.8113262 69.911201,92.3887123 71.1247231,88.1063277 C71.1871328,87.8844265 71.1470673,87.6455745 71.0153135,87.4568044 C70.8843302,87.2672638 70.6747568,87.1470673 70.4443802,87.1278051 C66.6273717,86.82115 62.9798709,84.1860734 59.4533372,81.6372917 C56.4183762,79.4460175 53.28094,77.1784648 49.9701435,76.3370895 C49.301358,76.1675816 48.631802,76.0997785 47.9645574,76.0997785 C46.6747568,76.0997785 45.3926611,76.3517288 44.138303,76.5975152 C42.128094,76.9935471 40.0477704,77.4011365 37.83107,76.8402196 C34.4100934,75.9734181 30.06684,73.8306848 28.8032361,68.5505153 C28.2685158,66.3176346 28.686892,63.9013773 29.9296928,61.6654146 C29.8364634,62.1261678 29.8202832,62.5553308 29.8364634,62.9097563 C29.8387749,62.9536743 29.8410864,62.9975922 29.8441684,63.0422807 C29.6014639,63.7927381 29.4504478,64.5732447 29.397284,65.3691611 C29.2162188,68.0828277 30.2047578,70.6462487 32.1818357,72.5855726 C36.1174998,76.4472696 41.537128,75.6359434 45.8927092,74.9848791 L46.8381007,74.8446499 C47.7865742,74.7075026 48.4530483,74.5534046 48.9399981,74.440913 C50.2351921,74.1404218 50.3137821,74.1227006 52.807859,75.4749109 C54.8250024,76.5682365 56.5231629,77.4851199 58.486372,78.4960031 C62.5584128,80.5948185 66.7406337,83.1436001 71.9861312,86.7271501 C69.9212174,92.6106135 73.4816527,96.7304247 77.2663007,98.5025522 C80.8737359,100.191467 85.5398247,100.283155 89.02167,97.9493403 C87.3443128,100.147549 85.9404796,101.444284 82.4008475,102.195512 Z M34.6281422,58.2544544 C34.4532409,57.9192911 34.0610614,57.7605702 33.7020129,57.8807666 C33.2558991,58.0302417 32.8598671,58.1997496 32.5085235,58.3869787 C35.8324184,55.2441491 40.3228354,53.8557257 44.0019262,54.8488876 C44.4688433,54.9744775 45.4327266,55.6340171 46.2078397,56.1641144 C47.3782144,56.9646538 48.0138688,57.3853414 48.5385727,57.4315708 C50.4231918,57.5979967 52.1937783,56.4468843 53.9027256,55.3312145 C54.5283637,54.9220842 55.176346,54.4998555 55.7973611,54.1677742 C56.7720312,53.6469229 58.0441106,53.0836945 59.391698,52.4865646 C63.0630839,50.8592892 67.2252721,49.0147356 69.1738419,46.5314456 C70.6670519,44.6267938 71.0515265,42.563421 71.4236733,40.5686218 C71.9314264,37.8426274 72.3698353,35.4903207 75.4148127,33.573341 C79.9869017,30.6963305 86.6262159,31.4329192 90.2151594,35.2175672 C90.327651,35.3362227 90.4370606,35.4541077 90.5426177,35.5719927 C91.8832707,38.2725609 91.0796494,41.1210633 90.3854377,42.7336993 C88.5439661,47.014543 84.3085813,50.4755851 80.7442936,50.6127324 C78.6585765,50.6859289 77.0390061,49.655013 75.9225657,47.52846 C75.8054512,47.3050178 75.5858615,47.1524608 75.3346817,47.1216411 C75.0804199,47.091592 74.8330926,47.1840509 74.6651257,47.3743619 C71.3003949,51.1505345 66.5595685,53.2909564 61.9743812,55.3620341 C57.2543581,57.4924396 52.3733025,59.6975826 48.8013098,63.6995088 C48.4900318,64.0485409 48.1872291,64.3952615 47.8890494,64.7373591 C44.8224983,68.2469421 42.604257,70.7795435 37.2015795,69.5043822 C34.4640277,68.8556294 31.7619185,65.8799961 31.410575,63.2248868 C31.9761148,61.6684966 33.0101127,60.2746798 34.407782,59.228354 C34.7105846,59.0018299 34.8038139,58.5888472 34.6281422,58.2544544 Z M67.9996148,0 C30.5044785,0 0,30.5044785 0,67.9996148 C0,105.494751 30.5044785,136 67.9996148,136 C80.513917,136 92.8887605,132.242319 105.831455,124.51122 C110.91515,121.474718 114.301454,115.833959 114.458634,110.140037 C114.573437,105.976307 113.077145,99.9110084 105.271309,94.6477897 L99.6182221,91.189059 C99.5481075,91.1451411 99.4710585,91.113551 99.390157,91.0958297 C96.8629491,90.5056342 94.9128383,91.0781084 92.7978426,93.1838582 C94.4998555,88.4892613 91.9063854,82.5711259 88.0762785,79.6394106 C83.1744197,75.8855822 78.3049215,78.2710199 73.5956853,80.5794086 L73.2497351,80.748146 C70.0229221,77.3895791 66.9278629,74.2359626 62.7625927,72.001541 C61.5583165,71.3558702 60.1105653,71.0029856 58.7105846,70.6616585 C57.3614562,70.3326592 56.0870654,70.0221516 55.1940672,69.4943658 C53.4874314,68.4842531 53.1761533,67.6297794 52.5551382,65.9254551 C52.4334008,65.5933738 52.3039584,65.2366368 52.1537128,64.8513917 C54.6447077,63.0307233 57.8322258,61.6715785 61.1938746,60.2376962 C65.9801599,58.1958971 70.9182317,56.0901474 74.2590773,52.4179909 C75.9187133,54.6739863 78.5245112,55.7865742 81.7251276,55.5739189 C87.0422807,55.2164114 92.4796302,51.2930752 94.3727246,46.4474622 C95.9160166,42.4963883 95.0122315,38.3519214 91.8324184,34.7051912 C91.8277954,34.6951748 91.822402,34.6866994 91.8170086,34.6774535 C91.9865164,34.3677165 91.9248772,33.9716845 91.6482712,33.7297506 C91.4417798,33.5479149 91.2144852,33.3853414 90.9864201,33.224309 C90.8392565,33.1202928 90.6913224,33.0162766 90.5534046,32.903785 C90.32611,32.7219493 90.0263893,32.6880478 89.7721275,32.7928344 C85.5382837,29.7262833 79.1516903,29.400366 74.5934701,32.2689011 C70.9791005,34.5449292 70.4343639,37.4627757 69.908119,40.2858519 C69.5552345,42.1820283 69.2216123,43.9734181 67.9610902,45.5798902 C66.2498315,47.761148 62.1007416,49.6003082 58.7668304,51.077338 C57.3930463,51.6860252 56.0963113,52.2608109 55.0707888,52.8086295 C54.3904459,53.1723009 53.7139555,53.6137918 53.0598093,54.0414138 C51.5026486,55.0576905 50.0248483,56.0123278 48.7096215,55.9021477 C48.4615236,55.8389675 47.6286237,55.2688048 47.0777232,54.8912646 C46.1169219,54.2348069 45.12376,53.5552345 44.4033516,53.3603005 C40.1517866,52.2161225 34.9995184,53.8125783 31.2795916,57.4300299 C27.864779,60.7500722 26.3785033,65.0409323 27.3046326,68.9087932 C28.4472696,73.6819802 31.9560821,76.9411538 37.4519888,78.3342001 C40.0069344,78.9791005 42.3592411,78.5183473 44.4357122,78.1099875 C46.2494462,77.754021 47.963787,77.4173168 49.5902918,77.8302995 C52.6167774,78.6000193 55.4991814,80.6826543 58.5503226,82.8870269 C61.986709,85.3695464 65.5309641,87.9298854 69.4219397,88.5555235 C68.4141385,93.0806125 69.4959068,97.6665704 72.3328518,100.69999 C74.95483,103.502263 78.6447077,104.56631 82.720601,103.703361 C87.4729847,102.694019 88.9592603,100.661466 91.2106328,97.5841279 C91.5003371,97.1873254 91.8054512,96.7697197 92.135221,96.3320813 C94.9536743,92.5782529 96.7096215,92.0851392 98.9224694,92.5697775 L104.438409,95.9437542 C111.635558,100.797072 113.02167,106.319176 112.918424,110.09766 C112.775884,115.277665 109.683136,120.416065 105.041703,123.188289 C92.3440239,130.772224 80.2272946,134.45902 67.9996148,134.45902 C31.3543292,134.45902 1.54098045,104.645671 1.54098045,67.9996148 C1.54098045,31.3543292 31.3543292,1.54098045 67.9996148,1.54098045 C104.645671,1.54098045 134.45902,31.3543292 134.45902,67.9996148 C134.45902,72.2858519 134.048348,76.5728595 133.238563,80.7427526 C133.157662,81.1603583 133.430415,81.5648656 133.848021,81.6457671 C134.267938,81.7282096 134.670134,81.4539151 134.751035,81.0363094 C135.579312,76.770105 136,72.3844746 136,67.9996148 C136,30.5044785 105.494751,0 67.9996148,0 Z" id="Fill-8"></path>
                </g>
            </g>
        </g>
    </g>
</svg>