<?xml version="1.0" encoding="UTF-8"?>
<svg width="136px" height="136px" viewBox="0 0 136 136" version="1.1" xmlns="http://www.w3.org/2000/svg" xmlns:xlink="http://www.w3.org/1999/xlink">
    <!-- Generator: sketchtool 52.6 (67491) - http://www.bohemiancoding.com/sketch -->
    <title>A818E396-AA88-418A-90F5-C1DD960383AA</title>
    <desc>Created with sketchtool.</desc>
    <g id="Promo-Desktop" stroke="none" stroke-width="1" fill="none" fill-rule="evenodd">
        <g id="Homepage" transform="translate(-103.000000, -1075.000000)" fill="#FE5001">
            <g id="layout/section-04" transform="translate(71.000000, 1028.000000)">
                <g id="layout/icon-image" transform="translate(32.000000, 47.000000)">
                    <path d="M76.7050479,74.9175004 L75.9314713,75.6124865 C72.6129511,78.602776 69.4662512,81.8257549 66.4227976,84.9424055 C64.1714124,87.2477253 61.8529942,89.6208487 59.4775593,91.8876438 C59.4367231,91.4654127 59.3565917,91.0601326 59.2533454,90.6710328 C59.4297887,90.211818 59.6447567,89.711767 59.949102,89.1647159 C62.167356,85.1766359 66.4081582,81.4636225 70.5087304,77.8738882 C71.9572602,76.6064246 73.3248881,75.4083055 74.5777123,74.2202028 L75.4175514,73.4250524 C81.7047873,67.4675882 89.928276,59.6763469 95.6800181,52.5284686 C94.4295054,55.7938247 91.9462013,59.3080505 89.0946009,62.6388986 C88.8156818,62.876211 88.5359923,63.1135233 88.2578437,63.3508356 C84.5987649,66.4582403 81.0768342,69.4500708 79.2261062,72.6368364 C78.2914962,73.4928559 77.4370177,74.2602685 76.7050479,74.9175004 Z M58.5244575,88.5591071 C58.2324401,87.7770551 57.9928163,87.0358393 58.0390459,86.3578041 C58.180817,84.3036655 58.4289162,84.1056484 59.6201008,83.1548581 C60.0777746,82.7896436 60.6479406,82.3350518 61.3544842,81.668574 C63.7129681,79.4456971 66.0244519,77.1234264 68.2588862,74.8766642 C69.6527109,73.4751346 71.0473061,72.0743754 72.4588522,70.6897966 C76.4245878,66.7995694 80.2701263,62.5379639 83.9893037,58.4165883 C84.868438,57.4426831 85.7444904,56.470319 86.6205427,55.5064302 C87.1976432,54.8715427 87.8602685,54.189655 88.5583366,53.470013 C91.07169,50.8819217 94.1197666,47.7436972 95.335607,44.5476857 C96.1638887,45.6872472 96.559923,46.994006 96.5406606,48.5072574 C96.5391196,48.6351595 96.5344966,48.7638321 96.5267917,48.8932752 C90.9245255,56.609008 81.4127698,65.6214832 74.3581214,72.3062943 L73.5182823,73.1022152 C72.2870319,74.268744 70.9301909,75.4568466 69.4932185,76.7142938 C65.294023,80.391094 60.950745,84.1927143 58.6022775,88.4157951 C58.5760807,88.4635658 58.5498839,88.512107 58.5244575,88.5591071 Z M56.5789587,85.4255056 C54.6311484,82.3990029 51.843499,80.2547164 48.3007648,79.0989746 C47.9108946,78.9726134 47.5680245,78.8554983 47.2652201,78.752252 C46.4854796,78.4864314 45.8960512,78.3115291 45.4198856,78.256824 C46.1510849,77.2012464 46.9554813,76.2196363 47.8407796,75.3435839 C50.7917738,72.4241799 53.8490964,69.5471531 56.8054841,66.7641267 C61.4846978,62.3592091 66.3241743,57.8048156 70.8408136,52.9899949 C71.7307348,52.0422866 72.7786074,50.7863804 73.8881197,49.4572772 C78.3631522,44.0961759 84.4908957,36.7525919 89.3704379,38.0662852 C91.8706929,38.7381565 94.5705059,40.8508526 96.4551357,43.4674523 C96.2201348,43.1615659 95.9612487,42.868778 95.6769362,42.5875474 C95.6353294,42.508957 95.5798538,42.437301 95.5112798,42.3764319 C94.8941136,41.8216758 94.4726531,42.0728571 94.2784885,42.2724152 C94.1236191,42.4303666 93.9379299,42.728548 94.1629143,43.1592544 C93.3785508,46.2936264 90.1031783,49.6668517 87.4526769,52.3967141 C86.7415104,53.1286839 86.0673276,53.82367 85.4802108,54.470115 C84.6026174,55.4363152 83.7250241,56.4086794 82.8451193,57.3841255 C79.1413518,61.4885502 75.3119937,65.7324344 71.3793893,69.5895303 C69.9632202,70.9787321 68.5647725,72.3841142 67.1663249,73.7894963 C64.940366,76.0277831 62.6381282,78.3415784 60.2973656,80.5475044 C59.6370517,81.170064 59.0946235,81.603082 58.6585236,81.950575 C57.3656337,82.9822673 56.8131891,83.520843 56.5789587,85.4255056 Z M53.970064,94.2738655 C52.0122373,95.0073764 50.7023965,95.1460654 49.849459,94.7107359 C49.2022435,94.3801938 48.7399467,93.6813552 48.4356014,92.5733839 C48.3677979,92.3260552 48.1805677,92.1288086 47.9378619,92.0471361 C47.8577304,92.0209393 47.774517,92.0070704 47.6928446,92.0070704 C47.641992,92.0070704 47.5911393,92.0124639 47.5410572,92.0217098 C46.2003966,90.4159991 43.9428474,88.9158461 41.7091836,88.8649935 C41.7561838,88.6870092 41.8039545,88.5036315 41.8532661,88.3148603 C42.3818254,86.2846071 43.1053198,83.5054331 43.8241913,82.0838706 C43.9736672,81.7887712 44.1061923,81.52218 44.2256189,81.2794743 C44.5754235,80.5721602 44.9375559,79.8417313 45.1070648,79.7700753 C45.2696391,79.7022718 46.0324288,79.959617 46.7674806,80.2100278 C47.0772194,80.3155855 47.425483,80.4342417 47.8222877,80.5644553 C53.6741941,82.4729704 56.2830888,87.0435443 57.4218798,91.2042151 C56.9387797,92.5340887 56.4911223,93.3300096 53.970064,94.2738655 Z M48.8601439,97.5130248 C49.0481446,97.0615149 49.1498499,96.5838083 49.1668007,96.0922327 C50.1707552,96.5969067 51.3365135,96.5722509 52.4637471,96.33725 C51.3195626,96.7772024 50.1075746,97.1678432 48.8601439,97.5130248 Z M47.5348932,96.6400544 C46.6241686,96.8581044 45.6379355,97.2680075 44.6023908,97.698714 C42.4480879,98.5932582 40.2290635,99.5163107 38.7450909,98.6826355 C39.8931279,97.4991559 41.8170529,96.6362019 43.6847317,95.7971333 C44.853572,95.2724265 46.0524616,94.7346213 47.1026457,94.1035862 C47.489434,94.8186052 47.7891564,95.7362642 47.5348932,96.6400544 Z M40.2306045,90.3659169 C40.4101297,90.493819 40.6366551,90.5423602 40.8554756,90.4876551 C42.4272846,90.1201292 44.6902272,91.1202311 46.2127245,92.8399751 C45.2580817,93.4016656 44.1424055,93.9024871 43.0536967,94.3917512 C41.6174948,95.0366551 40.1504731,95.6946575 38.9369441,96.5298737 C39.2243386,94.7469492 39.6388647,92.6196136 40.2306045,90.3659169 Z M97.904436,45.9361169 C98.0986006,46.3591185 98.264257,46.7782675 98.4006345,47.1920231 C98.3197326,47.1635148 98.2349782,47.1504164 98.1509943,47.1504164 C98.0993711,47.1504164 98.047748,47.1558099 97.9976659,47.1658263 C97.8512719,46.1171832 97.5145657,45.1471305 96.9929409,44.2633732 C97.3365815,44.8073424 97.6432383,45.3667214 97.904436,45.9361169 Z M98.3366835,52.4968784 C97.6101071,54.0155232 96.5229392,55.4856269 95.2246558,56.9202878 C96.7448417,54.3630163 97.7857798,51.8242366 98.0284856,49.4457198 C98.26888,49.1082432 98.5023398,48.7738485 98.7280947,48.4409948 C99.0178007,49.9496233 98.8898986,51.340366 98.3366835,52.4968784 Z M68,0 C30.5046513,0 0,30.5046513 0,68 C0,105.496119 30.5046513,136.00077 68,136.00077 C80.5136026,136.00077 92.8885162,132.242298 105.832055,124.511155 C111.458977,121.151028 114.908481,114.71971 114.416906,108.509524 C113.832871,101.137431 107.987899,94.8686873 97.9568296,90.8590335 C97.5230412,90.6856722 96.9374653,90.428327 96.3095122,90.1524899 C95.2277378,89.6778653 94.0041924,89.1408305 93.1928616,88.8734689 L84.9154382,85.1057504 C81.3141465,82.4529375 79.5196646,79.9226333 79.4279758,77.3753782 C79.3817461,76.1025211 79.7608294,74.8520084 80.4473401,73.6107416 C83.447646,70.8646989 87.0874625,67.3820633 90.2796216,63.6528695 C94.1151436,60.3813495 97.8990425,56.9811569 99.7258852,53.1618152 C100.77684,50.9651351 100.628134,48.1705512 99.3044247,45.292754 C97.4051555,41.1605915 93.484879,37.5770211 89.7703246,36.5776896 C83.9392216,35.0066512 77.4462637,42.789417 72.70464,48.4702736 C71.6105376,49.7816554 70.5757634,51.0198402 69.7166619,51.9359583 C65.2331539,56.7153362 60.4113988,61.2535494 55.749136,65.6422866 C52.7858138,68.431477 49.7215569,71.3146677 46.7574642,74.2479406 C40.2074897,80.7262591 37.8944649,92.5009575 37.1355277,98.195683 C37.095462,98.2496176 37.0553963,98.3035522 37.0176421,98.3574868 C36.8342643,98.6202255 36.8350348,98.9630956 37.0060846,99.2227523 C36.9606255,99.613393 36.9236417,99.9601156 36.8943629,100.256756 C36.8720186,100.488675 36.9544615,100.717512 37.1193473,100.880857 C37.2850037,101.044201 37.5146111,101.121251 37.7457594,101.098907 C45.0562121,100.289117 54.7544275,98.407569 59.4459691,94.0350122 C62.2274545,91.4438389 64.9203331,88.6854682 67.5253753,86.0187865 C70.5511076,82.9198572 73.6808566,79.7153702 76.9631636,76.7574415 L77.7344286,76.0639964 C77.8230355,75.9846354 77.9124129,75.904504 78.0033313,75.8220611 C77.9085604,76.3506204 77.8684947,76.8861141 77.8877571,77.4300833 C77.9979378,80.4958813 80.0189451,83.4283837 84.0671237,86.3955583 C84.1102714,86.4263781 84.1557306,86.4533454 84.2042717,86.4749193 L92.5934168,90.29272 C92.6196136,90.3050479 92.6465809,90.3158348 92.6743187,90.3243102 C93.4124526,90.5647045 94.6228996,91.0948048 95.6900346,91.564036 C96.335709,91.847578 96.9397768,92.1118577 97.3858932,92.2898419 C106.842944,96.0706589 112.345816,101.874024 112.880539,108.630491 C113.327426,114.271282 110.176874,120.121647 105.041527,123.188986 C92.3437766,130.772194 80.2277491,134.459781 68,134.459781 C31.3545068,134.459781 1.54098918,104.645493 1.54098918,68 C1.54098918,31.3545068 31.3545068,1.54098918 68,1.54098918 C104.645493,1.54098918 134.459011,31.3545068 134.459011,68 C134.459011,72.2854909 134.049108,76.5732933 133.239318,80.74321 C133.157645,81.1608181 133.430401,81.5645572 133.848779,81.6462297 C134.264846,81.7286726 134.670897,81.4543765 134.751799,81.0367685 C135.58008,76.7705399 136,72.3841142 136,68 C136,30.5046513 105.495349,0 68,0 Z" id="Fill-4"></path>
                </g>
            </g>
        </g>
    </g>
</svg>